<svg fill="none" xmlns="http://www.w3.org/2000/svg" class="w-auto h-6 shrink-0" viewBox="840 60 180 140"><path d="M958 60.0001H938C933.524 60.0001 929.926 59.9395 927 63C924.074 65.8905 925 67.5792 925 72V141C925 151.372 923.648 156.899 919 162C914.352 166.931 908.468 169 899 169C889.705 169 882.648 166.931 878 162C873.352 156.899 873 151.372 873 141V72.0001C873 67.5793 872.926 65.8906 870 63.0001C867.074 59.9396 863.476 60.0001 859 60.0001H840V141C840 159.023 845.016 173.458 855 184C865.156 194.542 879.893 200 899 200C918.107 200 932.844 194.542 943 184C953.156 173.458 958 159.023 958 141V60.0001Z" fill="currentColor"></path><path fill-rule="evenodd" clip-rule="evenodd" d="M1000 60.0233L1020 60V77L1020 128V156.007L1020 181L1020 189.004C1020 192.938 1019.98 194.429 1017 197.001C1014.02 199.725 1009.56 200 1005 200H986.001V181.006L986 130.012V70.0215C986 66.1576 986.016 64.5494 989 62.023C991.819 59.6358 995.437 60.0233 1000 60.0233Z" fill="currentColor"></path> <style> path { fill: #00000080; } @media (prefers-color-scheme: dark) { path { fill: #ffffff80; } } </style> </svg>
