<svg width="363" height="152" viewBox="0 0 363 152" fill="none" xmlns="http://www.w3.org/2000/svg">
<path d="M358 0C360.209 0 362 1.79086 362 4V13.8182L324 13.8182V4C324 1.79086 325.791 0 328 0L358 0Z" fill="#F8FAFC"/>
<rect x="362" y="13.8182" width="13.8182" height="38" transform="rotate(90 362 13.8182)" fill="#F1F5F9"/>
<rect x="362" y="27.6364" width="13.8182" height="38" transform="rotate(90 362 27.6364)" fill="#E2E8F0"/>
<rect x="362" y="41.4546" width="13.8182" height="38" transform="rotate(90 362 41.4546)" fill="#CBD5E1"/>
<rect x="362" y="55.2727" width="13.8182" height="38" transform="rotate(90 362 55.2727)" fill="#94A3B8"/>
<rect x="362" y="69.0909" width="13.8182" height="38" transform="rotate(90 362 69.0909)" fill="#64748B"/>
<rect x="362" y="82.9091" width="13.8182" height="38" transform="rotate(90 362 82.9091)" fill="#475569"/>
<rect x="362" y="96.7273" width="13.8182" height="38" transform="rotate(90 362 96.7273)" fill="#334155"/>
<rect x="362" y="110.545" width="13.8182" height="38" transform="rotate(90 362 110.545)" fill="#1E293B"/>
<rect x="362" y="124.364" width="13.8182" height="38" transform="rotate(90 362 124.364)" fill="#0F172A"/>
<path d="M362 138.182V148C362 150.209 360.209 152 358 152H328C325.791 152 324 150.209 324 148V138.182H362Z" fill="#020420"/>
<path d="M304 0C306.209 0 308 1.79086 308 4V13.8182L270 13.8182V4C270 1.79086 271.791 0 274 0L304 0Z" fill="#EEF2FF"/>
<rect x="308" y="13.8182" width="13.8182" height="38" transform="rotate(90 308 13.8182)" fill="#E0E7FF"/>
<rect x="308" y="27.6364" width="13.8182" height="38" transform="rotate(90 308 27.6364)" fill="#C7D2FE"/>
<rect x="308" y="41.4546" width="13.8182" height="38" transform="rotate(90 308 41.4546)" fill="#A5B4FC"/>
<rect x="308" y="55.2727" width="13.8182" height="38" transform="rotate(90 308 55.2727)" fill="#818CF8"/>
<rect x="308" y="69.0909" width="13.8182" height="38" transform="rotate(90 308 69.0909)" fill="#6366F1"/>
<rect x="308" y="82.9091" width="13.8182" height="38" transform="rotate(90 308 82.9091)" fill="#4F46E5"/>
<rect x="308" y="96.7273" width="13.8182" height="38" transform="rotate(90 308 96.7273)" fill="#4338CA"/>
<rect x="308" y="110.545" width="13.8182" height="38" transform="rotate(90 308 110.545)" fill="#3730A3"/>
<rect x="308" y="124.364" width="13.8182" height="38" transform="rotate(90 308 124.364)" fill="#312E81"/>
<path d="M308 138.182V148C308 150.209 306.209 152 304 152H274C271.791 152 270 150.209 270 148V138.182H308Z" fill="#1E1B4B"/>
<path d="M250 0C252.209 0 254 1.79086 254 4V13.8182L216 13.8182V4C216 1.79086 217.791 0 220 0L250 0Z" fill="#F5F3FF"/>
<rect x="254" y="13.8182" width="13.8182" height="38" transform="rotate(90 254 13.8182)" fill="#EDE9FE"/>
<rect x="254" y="27.6364" width="13.8182" height="38" transform="rotate(90 254 27.6364)" fill="#DDD6FE"/>
<rect x="254" y="41.4546" width="13.8182" height="38" transform="rotate(90 254 41.4546)" fill="#C4B5FD"/>
<rect x="254" y="55.2727" width="13.8182" height="38" transform="rotate(90 254 55.2727)" fill="#A78BFA"/>
<rect x="254" y="69.0909" width="13.8182" height="38" transform="rotate(90 254 69.0909)" fill="#8B5CF6"/>
<rect x="254" y="82.9091" width="13.8182" height="38" transform="rotate(90 254 82.9091)" fill="#7C3AED"/>
<rect x="254" y="96.7273" width="13.8182" height="38" transform="rotate(90 254 96.7273)" fill="#6D28D9"/>
<rect x="254" y="110.545" width="13.8182" height="38" transform="rotate(90 254 110.545)" fill="#5B21B6"/>
<rect x="254" y="124.364" width="13.8182" height="38" transform="rotate(90 254 124.364)" fill="#4C1D95"/>
<path d="M254 138.182V148C254 150.209 252.209 152 250 152H220C217.791 152 216 150.209 216 148V138.182H254Z" fill="#2E1065"/>
<path d="M34 0C36.2091 0 38 1.79086 38 4V13.8182L0 13.8182V4C0 1.79086 1.79086 0 4 0L34 0Z" fill="#FFF1F2"/>
<rect x="38" y="13.8182" width="13.8182" height="38" transform="rotate(90 38 13.8182)" fill="#FFE4E6"/>
<rect x="38" y="27.6364" width="13.8182" height="38" transform="rotate(90 38 27.6364)" fill="#FECDD3"/>
<rect x="38" y="41.4546" width="13.8182" height="38" transform="rotate(90 38 41.4546)" fill="#FDA4AF"/>
<rect x="38" y="55.2727" width="13.8182" height="38" transform="rotate(90 38 55.2727)" fill="#FB7185"/>
<rect x="38" y="69.0909" width="13.8182" height="38" transform="rotate(90 38 69.0909)" fill="#F43F5E"/>
<rect x="38" y="82.9091" width="13.8182" height="38" transform="rotate(90 38 82.9091)" fill="#E11D48"/>
<rect x="38" y="96.7273" width="13.8182" height="38" transform="rotate(90 38 96.7273)" fill="#BE123C"/>
<rect x="38" y="110.545" width="13.8182" height="38" transform="rotate(90 38 110.545)" fill="#9F1239"/>
<rect x="38" y="124.364" width="13.8182" height="38" transform="rotate(90 38 124.364)" fill="#881337"/>
<path d="M38 138.182V148C38 150.209 36.2091 152 34 152H4C1.79086 152 0 150.209 0 148V138.182H38Z" fill="#4C0519"/>
<path d="M88 0C90.2091 0 92 1.79086 92 4V13.8182L54 13.8182V4C54 1.79086 55.7909 0 58 0L88 0Z" fill="#F0F9FF"/>
<rect x="92" y="13.8182" width="13.8182" height="38" transform="rotate(90 92 13.8182)" fill="#E0F2FE"/>
<rect x="92" y="27.6364" width="13.8182" height="38" transform="rotate(90 92 27.6364)" fill="#BAE6FD"/>
<rect x="92" y="41.4546" width="13.8182" height="38" transform="rotate(90 92 41.4546)" fill="#7DD3FC"/>
<rect x="92" y="55.2727" width="13.8182" height="38" transform="rotate(90 92 55.2727)" fill="#38BDF8"/>
<rect x="92" y="69.0909" width="13.8182" height="38" transform="rotate(90 92 69.0909)" fill="#0EA5E9"/>
<rect x="92" y="82.9091" width="13.8182" height="38" transform="rotate(90 92 82.9091)" fill="#0284C7"/>
<rect x="92" y="96.7273" width="13.8182" height="38" transform="rotate(90 92 96.7273)" fill="#0369A1"/>
<rect x="92" y="110.545" width="13.8182" height="38" transform="rotate(90 92 110.545)" fill="#075985"/>
<rect x="92" y="124.364" width="13.8182" height="38" transform="rotate(90 92 124.364)" fill="#0C4A6E"/>
<path d="M92 138.182V148C92 150.209 90.2091 152 88 152H58C55.7909 152 54 150.209 54 148V138.182H92Z" fill="#082F49"/>
<path d="M142 0C144.209 0 146 1.79086 146 4V13.8182L108 13.8182V4C108 1.79086 109.791 0 112 0L142 0Z" fill="#F0FDFA"/>
<rect x="146" y="13.8182" width="13.8182" height="38" transform="rotate(90 146 13.8182)" fill="#CCFBF1"/>
<rect x="146" y="27.6364" width="13.8182" height="38" transform="rotate(90 146 27.6364)" fill="#99F6E4"/>
<rect x="146" y="41.4546" width="13.8182" height="38" transform="rotate(90 146 41.4546)" fill="#5EEAD4"/>
<rect x="146" y="55.2727" width="13.8182" height="38" transform="rotate(90 146 55.2727)" fill="#2DD4BF"/>
<rect x="146" y="69.0909" width="13.8182" height="38" transform="rotate(90 146 69.0909)" fill="#14B8A6"/>
<rect x="146" y="82.9091" width="13.8182" height="38" transform="rotate(90 146 82.9091)" fill="#0D9488"/>
<rect x="146" y="96.7273" width="13.8182" height="38" transform="rotate(90 146 96.7273)" fill="#0F766E"/>
<rect x="146" y="110.545" width="13.8182" height="38" transform="rotate(90 146 110.545)" fill="#115E59"/>
<rect x="146" y="124.364" width="13.8182" height="38" transform="rotate(90 146 124.364)" fill="#134E4A"/>
<path d="M146 138.182V148C146 150.209 144.209 152 142 152H112C109.791 152 108 150.209 108 148V138.182H146Z" fill="#042F2E"/>
<path d="M196 0C198.209 0 200 1.79086 200 4V13.8182L162 13.8182V4C162 1.79086 163.791 0 166 0L196 0Z" fill="#F0FDF4"/>
<rect x="200" y="13.8182" width="13.8182" height="38" transform="rotate(90 200 13.8182)" fill="#DCFCE7"/>
<rect x="200" y="27.6364" width="13.8182" height="38" transform="rotate(90 200 27.6364)" fill="#BBF7D0"/>
<rect x="200" y="41.4546" width="13.8182" height="38" transform="rotate(90 200 41.4546)" fill="#86EFAC"/>
<rect x="200" y="55.2727" width="13.8182" height="38" transform="rotate(90 200 55.2727)" fill="#4ADE80"/>
<rect x="200" y="69.0909" width="13.8182" height="38" transform="rotate(90 200 69.0909)" fill="#22C55E"/>
<rect x="200" y="82.9091" width="13.8182" height="38" transform="rotate(90 200 82.9091)" fill="#16A34A"/>
<rect x="200" y="96.7273" width="13.8182" height="38" transform="rotate(90 200 96.7273)" fill="#15803D"/>
<rect x="200" y="110.545" width="13.8182" height="38" transform="rotate(90 200 110.545)" fill="#166534"/>
<rect x="200" y="124.364" width="13.8182" height="38" transform="rotate(90 200 124.364)" fill="#14532D"/>
<path d="M200 138.182V148C200 150.209 198.209 152 196 152H166C163.791 152 162 150.209 162 148V138.182H200Z" fill="#052E16"/>
</svg>
