<svg width="329" height="173" viewBox="0 0 329 173" fill="none" xmlns="http://www.w3.org/2000/svg">
<g clip-path="url(#clip0_669_3659)">
<rect width="328" height="173" rx="6" fill="url(#paint0_linear_669_3659)" fill-opacity="0.2"/>
<rect x="0.5" y="0.5" width="327" height="172" rx="5.5" stroke="url(#paint1_linear_669_3659)" stroke-opacity="0.4"/>
<rect x="36" y="24" width="256" height="118" rx="2" fill="white" fill-opacity="0.05"/>
<g clip-path="url(#clip1_669_3659)">
<mask id="path-5-inside-1_669_3659" fill="white">
<path d="M37 26C37 25.4477 37.4477 25 38 25H290C290.552 25 291 25.4477 291 26V46H37V26Z"/>
</mask>
<path d="M37 26C37 25.4477 37.4477 25 38 25H290C290.552 25 291 25.4477 291 26V46H37V26Z" fill="white" fill-opacity="0.05"/>
<line x1="45" y1="35" x2="46" y2="35" stroke="white" stroke-opacity="0.1" stroke-width="6" stroke-linecap="round"/>
<line x1="61" y1="35" x2="85" y2="35" stroke="white" stroke-opacity="0.1" stroke-width="6" stroke-linecap="round"/>
<line x1="120.5" y1="35" x2="151.5" y2="35" stroke="white" stroke-opacity="0.1" stroke-width="6" stroke-linecap="round"/>
<line x1="179" y1="35" x2="202" y2="35" stroke="white" stroke-opacity="0.1" stroke-width="6" stroke-linecap="round"/>
<line x1="240.5" y1="35" x2="263.5" y2="35" stroke="white" stroke-opacity="0.1" stroke-width="6" stroke-linecap="round"/>
</g>
<path d="M37 25H291H37ZM291 46.5H37V45.5H291V46.5ZM37 46V25V46ZM291 25V46V25Z" fill="white" fill-opacity="0.1" mask="url(#path-5-inside-1_669_3659)"/>
<g clip-path="url(#clip2_669_3659)">
<line x1="44" y1="55" x2="45" y2="55" stroke="white" stroke-opacity="0.1" stroke-width="4" stroke-linecap="round"/>
<line x1="61" y1="55" x2="83" y2="55" stroke="white" stroke-opacity="0.1" stroke-width="4" stroke-linecap="round"/>
<line x1="120.5" y1="55" x2="142.5" y2="55" stroke="white" stroke-opacity="0.1" stroke-width="4" stroke-linecap="round"/>
<line x1="178" y1="55" x2="205" y2="55" stroke="white" stroke-opacity="0.1" stroke-width="4" stroke-linecap="round"/>
<line x1="239.5" y1="55" x2="253.5" y2="55" stroke="white" stroke-opacity="0.1" stroke-width="4" stroke-linecap="round"/>
</g>
<path d="M291 63.7H37V64.3H291V63.7Z" fill="white" fill-opacity="0.1" mask="url(#path-12-inside-2_669_3659)"/>
<g clip-path="url(#clip3_669_3659)">
<line x1="44" y1="74" x2="45" y2="74" stroke="white" stroke-opacity="0.1" stroke-width="4" stroke-linecap="round"/>
<line x1="61" y1="74" x2="91" y2="74" stroke="white" stroke-opacity="0.1" stroke-width="4" stroke-linecap="round"/>
<line x1="120.5" y1="74" x2="135.5" y2="74" stroke="white" stroke-opacity="0.1" stroke-width="4" stroke-linecap="round"/>
<line x1="178" y1="74" x2="191" y2="74" stroke="white" stroke-opacity="0.1" stroke-width="4" stroke-linecap="round"/>
<line x1="239.5" y1="74" x2="261.5" y2="74" stroke="white" stroke-opacity="0.1" stroke-width="4" stroke-linecap="round"/>
</g>
<path d="M291 82.7H37V83.3H291V82.7Z" fill="white" fill-opacity="0.1" mask="url(#path-19-inside-3_669_3659)"/>
<g clip-path="url(#clip4_669_3659)">
<line x1="44" y1="93" x2="45" y2="93" stroke="white" stroke-opacity="0.1" stroke-width="4" stroke-linecap="round"/>
<line x1="61" y1="93" x2="73" y2="93" stroke="white" stroke-opacity="0.1" stroke-width="4" stroke-linecap="round"/>
<line x1="120.5" y1="93" x2="142.5" y2="93" stroke="white" stroke-opacity="0.1" stroke-width="4" stroke-linecap="round"/>
<line x1="178" y1="93" x2="200" y2="93" stroke="white" stroke-opacity="0.1" stroke-width="4" stroke-linecap="round"/>
<line x1="239.5" y1="93" x2="275.5" y2="93" stroke="white" stroke-opacity="0.1" stroke-width="4" stroke-linecap="round"/>
</g>
<path d="M291 101.7H37V102.3H291V101.7Z" fill="white" fill-opacity="0.1" mask="url(#path-26-inside-4_669_3659)"/>
<g opacity="0.59">
<g clip-path="url(#clip5_669_3659)">
<line x1="44" y1="112" x2="45" y2="112" stroke="white" stroke-opacity="0.1" stroke-width="4" stroke-linecap="round"/>
<line x1="61" y1="112" x2="76" y2="112" stroke="white" stroke-opacity="0.1" stroke-width="4" stroke-linecap="round"/>
<line x1="120.5" y1="112" x2="142.5" y2="112" stroke="white" stroke-opacity="0.1" stroke-width="4" stroke-linecap="round"/>
<line x1="178" y1="112" x2="211" y2="112" stroke="white" stroke-opacity="0.1" stroke-width="4" stroke-linecap="round"/>
<line x1="239.5" y1="112" x2="261.5" y2="112" stroke="white" stroke-opacity="0.1" stroke-width="4" stroke-linecap="round"/>
</g>
<path d="M291 120.7H37V121.3H291V120.7Z" fill="white" fill-opacity="0.1" mask="url(#path-33-inside-5_669_3659)"/>
</g>
<g opacity="0.35" clip-path="url(#clip6_669_3659)">
<line x1="44" y1="131" x2="45" y2="131" stroke="white" stroke-opacity="0.1" stroke-width="4" stroke-linecap="round"/>
<line x1="61" y1="131" x2="83" y2="131" stroke="white" stroke-opacity="0.1" stroke-width="4" stroke-linecap="round"/>
<line x1="120.5" y1="131" x2="134.5" y2="131" stroke="white" stroke-opacity="0.1" stroke-width="4" stroke-linecap="round"/>
<line x1="178" y1="131" x2="200" y2="131" stroke="white" stroke-opacity="0.1" stroke-width="4" stroke-linecap="round"/>
<line x1="239.5" y1="131" x2="272.5" y2="131" stroke="white" stroke-opacity="0.1" stroke-width="4" stroke-linecap="round"/>
</g>
<rect x="36.5" y="24.5" width="255" height="117" rx="1.5" stroke="url(#paint2_linear_669_3659)" stroke-opacity="0.1"/>
</g>
<defs>
<linearGradient id="paint0_linear_669_3659" x1="164" y1="0" x2="164" y2="78.7086" gradientUnits="userSpaceOnUse">
<stop stop-color="white"/>
<stop offset="1" stop-color="white" stop-opacity="0"/>
</linearGradient>
<linearGradient id="paint1_linear_669_3659" x1="164" y1="-1.02658e-07" x2="164.02" y2="117.577" gradientUnits="userSpaceOnUse">
<stop stop-color="white"/>
<stop offset="1" stop-color="white" stop-opacity="0"/>
</linearGradient>
<linearGradient id="paint2_linear_669_3659" x1="164" y1="24" x2="164" y2="142" gradientUnits="userSpaceOnUse">
<stop stop-color="white"/>
<stop offset="1" stop-color="white" stop-opacity="0"/>
</linearGradient>
<clipPath id="clip0_669_3659">
<rect width="329" height="173" fill="white"/>
</clipPath>
<clipPath id="clip1_669_3659">
<path d="M37 26C37 25.4477 37.4477 25 38 25H290C290.552 25 291 25.4477 291 26V46H37V26Z" fill="white"/>
</clipPath>
<clipPath id="clip2_669_3659">
<path d="M37 47H291V64H37V47Z" fill="white"/>
</clipPath>
<clipPath id="clip3_669_3659">
<path d="M37 66H291V83H37V66Z" fill="white"/>
</clipPath>
<clipPath id="clip4_669_3659">
<path d="M37 85H291V102H37V85Z" fill="white"/>
</clipPath>
<clipPath id="clip5_669_3659">
<path d="M37 104H291V121H37V104Z" fill="white"/>
</clipPath>
<clipPath id="clip6_669_3659">
<rect width="254" height="17" fill="white" transform="translate(37 123)"/>
</clipPath>
</defs>
</svg>
