<svg width="329" height="173" viewBox="0 0 329 173" fill="none" xmlns="http://www.w3.org/2000/svg">
<g clip-path="url(#clip0_993_2863)">
<rect x="0.5" y="0.5" width="328" height="172" rx="5.5" fill="url(#paint0_linear_993_2863)" fill-opacity="0.15" stroke="url(#paint1_linear_993_2863)"/>
<line x1="119.597" y1="33" x2="139.597" y2="33" stroke="#CBD5E1" stroke-opacity="0.5" stroke-width="6" stroke-linecap="round"/>
<path d="M158.194 32.398L158.195 32.3982C158.212 32.4152 158.226 32.4355 158.235 32.4579C158.244 32.4802 158.249 32.5042 158.249 32.5284C158.249 32.5526 158.244 32.5765 158.235 32.5989C158.226 32.6212 158.212 32.6414 158.195 32.6584C158.195 32.6584 158.195 32.6585 158.195 32.6585L156.229 34.6015L156.229 34.6015L156.227 34.6035C156.21 34.6206 156.19 34.6343 156.167 34.6436L156.273 34.8974L156.167 34.6436C156.145 34.6529 156.121 34.6577 156.097 34.6577C156.073 34.6577 156.049 34.6529 156.026 34.6436L155.92 34.8974L156.026 34.6436C156.004 34.6343 155.984 34.6206 155.967 34.6035L155.967 34.6035L155.966 34.6027L154.022 32.6593L154.022 32.6593L154.022 32.6585C154.004 32.6415 153.991 32.6212 153.981 32.5989C153.972 32.5765 153.967 32.5526 153.967 32.5284C153.967 32.5042 153.972 32.4802 153.981 32.4579C153.991 32.4355 154.004 32.4152 154.022 32.3982L154.022 32.398C154.056 32.3638 154.103 32.3447 154.151 32.3447C154.199 32.3447 154.246 32.3638 154.28 32.3978C154.28 32.3978 154.28 32.3979 154.28 32.398L155.902 34.0199L156.095 34.213L156.29 34.0213L157.935 32.3988L157.936 32.398C157.97 32.3638 158.017 32.3447 158.065 32.3447C158.114 32.3447 158.16 32.3638 158.194 32.398Z" stroke="#CBD5E1" stroke-opacity="0.5" stroke-width="0.55"/>
<rect x="112.097" y="24.5" width="54" height="17" rx="2.5" stroke="#CBD5E1" stroke-opacity="0.7"/>
<g clip-path="url(#clip1_993_2863)">
<ellipse cx="122.709" cy="58.9341" rx="4.5669" ry="4.56691" fill="#CBD5E1" fill-opacity="0.5"/>
<line x1="135.209" y1="59.4341" x2="155.209" y2="59.4341" stroke="#CBD5E1" stroke-opacity="0.5" stroke-width="6" stroke-linecap="round"/>
<rect x="112" y="70.4341" width="106.418" height="0.55426" fill="#CBD5E1" fill-opacity="0.32"/>
<g clip-path="url(#clip2_993_2863)">
<path d="M120.654 83.2508L121.222 81.8313C121.312 81.605 121.448 81.3994 121.62 81.227L124.734 78.1136C125.106 77.7408 125.711 77.7408 126.084 78.1136C126.456 78.4864 126.456 79.0908 126.084 79.4636L122.97 82.577C122.798 82.7494 122.592 82.885 122.366 82.9755L120.946 83.5433C120.763 83.6168 120.58 83.4345 120.654 83.2508Z" fill="#CBD5E1" fill-opacity="0.5"/>
<path d="M119.784 79.5758C119.784 79.2651 120.036 79.0133 120.346 79.0133H122.709C122.895 79.0133 123.046 78.8622 123.046 78.6758C123.046 78.4894 122.895 78.3383 122.709 78.3383H120.346C119.663 78.3383 119.109 78.8923 119.109 79.5758V83.8508C119.109 84.5342 119.663 85.0883 120.346 85.0883H124.621C125.305 85.0883 125.859 84.5342 125.859 83.8508V81.4883C125.859 81.3019 125.708 81.1508 125.521 81.1508C125.335 81.1508 125.184 81.3019 125.184 81.4883V83.8508C125.184 84.1614 124.932 84.4133 124.621 84.4133H120.346C120.036 84.4133 119.784 84.1614 119.784 83.8508V79.5758Z" fill="#CBD5E1" fill-opacity="0.5"/>
</g>
<line x1="135.209" y1="81.9883" x2="155.209" y2="81.9883" stroke="#CBD5E1" stroke-opacity="0.5" stroke-width="6" stroke-linecap="round"/>
<rect x="200.209" y="76.9883" width="9" height="9" rx="2" fill="#CBD5E1" fill-opacity="0.5"/>
<g clip-path="url(#clip3_993_2863)">
<path d="M121.359 96.5634C121.359 96.1906 121.661 95.8884 122.034 95.8884H123.779C123.959 95.8884 124.13 95.9595 124.257 96.0861L125.661 97.4907C125.788 97.6173 125.859 97.789 125.859 97.968V100.613C125.859 100.986 125.557 101.288 125.184 101.288H124.734V99.768C124.734 99.4099 124.592 99.0666 124.339 98.8134L122.934 97.4088C122.681 97.1556 122.338 97.0134 121.979 97.0134H121.359V96.5634Z" fill="#CBD5E1" fill-opacity="0.5"/>
<path d="M120.234 97.6884C119.861 97.6884 119.559 97.9906 119.559 98.3634V102.413C119.559 102.786 119.861 103.088 120.234 103.088H123.384C123.757 103.088 124.059 102.786 124.059 102.413V99.768C124.059 99.589 123.988 99.4173 123.861 99.2907L122.457 97.8861C122.33 97.7595 122.159 97.6884 121.979 97.6884H120.234Z" fill="#CBD5E1" fill-opacity="0.5"/>
</g>
<line x1="135.209" y1="99.9883" x2="165.209" y2="99.9883" stroke="#CBD5E1" stroke-opacity="0.5" stroke-width="6" stroke-linecap="round"/>
<rect x="200.209" y="94.9883" width="9" height="9" rx="2" fill="#CBD5E1" fill-opacity="0.5"/>
<rect x="112" y="110.988" width="106.418" height="0.55426" fill="#CBD5E1" fill-opacity="0.32"/>
<g clip-path="url(#clip4_993_2863)">
<path d="M119.109 118.893C118.86 118.893 118.659 119.094 118.659 119.343V119.793C118.659 120.041 118.86 120.243 119.109 120.243H126.309C126.557 120.243 126.759 120.041 126.759 119.793V119.343C126.759 119.094 126.557 118.893 126.309 118.893H119.109Z" fill="#CBD5E1" fill-opacity="0.5"/>
<path fill-rule="evenodd" clip-rule="evenodd" d="M119.109 120.918H126.309L125.944 124.387C125.895 124.845 125.509 125.193 125.048 125.193H120.369C119.908 125.193 119.522 124.845 119.474 124.387L119.109 120.918ZM121.359 122.493C121.359 122.244 121.56 122.043 121.809 122.043H123.609C123.857 122.043 124.059 122.244 124.059 122.493C124.059 122.741 123.857 122.943 123.609 122.943H121.809C121.56 122.943 121.359 122.741 121.359 122.493Z" fill="#CBD5E1" fill-opacity="0.5"/>
</g>
<line x1="135.209" y1="122.543" x2="157.209" y2="122.543" stroke="#CBD5E1" stroke-opacity="0.5" stroke-width="6" stroke-linecap="round"/>
<g opacity="0.36">
<path fill-rule="evenodd" clip-rule="evenodd" d="M122.709 143.643C124.697 143.643 126.309 142.031 126.309 140.043C126.309 138.054 124.697 136.443 122.709 136.443C120.721 136.443 119.109 138.054 119.109 140.043C119.109 142.031 120.721 143.643 122.709 143.643ZM121.246 139.705C121.06 139.705 120.909 139.856 120.909 140.043C120.909 140.229 121.06 140.38 121.246 140.38H123.312L122.367 141.258C122.23 141.385 122.222 141.598 122.349 141.735C122.476 141.871 122.689 141.879 122.826 141.752L124.401 140.29C124.47 140.226 124.509 140.136 124.509 140.043C124.509 139.949 124.47 139.859 124.401 139.795L122.826 138.333C122.689 138.206 122.476 138.214 122.349 138.35C122.222 138.487 122.23 138.701 122.367 138.827L123.312 139.705H121.246Z" fill="#CBD5E1" fill-opacity="0.5"/>
<line x1="135.209" y1="140.543" x2="151.209" y2="140.543" stroke="#CBD5E1" stroke-opacity="0.5" stroke-width="6" stroke-linecap="round"/>
</g>
<rect x="112" y="151.543" width="106.418" height="0.55426" fill="#CBD5E1" fill-opacity="0.32"/>
<g opacity="0.06">
<g clip-path="url(#clip5_993_2863)">
<path fill-rule="evenodd" clip-rule="evenodd" d="M122.147 158.547C121.463 158.547 120.909 159.101 120.909 159.784V159.983C120.551 160.018 120.196 160.063 119.845 160.118C119.66 160.147 119.534 160.319 119.563 160.503C119.592 160.687 119.764 160.813 119.949 160.785L120.015 160.775L120.394 165.508C120.445 166.151 120.982 166.647 121.627 166.647H123.791C124.436 166.647 124.973 166.151 125.024 165.508L125.403 160.775L125.47 160.785C125.654 160.813 125.826 160.687 125.855 160.503C125.884 160.319 125.758 160.147 125.574 160.118C125.222 160.063 124.867 160.018 124.509 159.983V159.784C124.509 159.101 123.955 158.547 123.272 158.547H122.147ZM122.709 159.897C123.087 159.897 123.462 159.908 123.834 159.93V159.784C123.834 159.474 123.582 159.222 123.272 159.222H122.147C121.836 159.222 121.584 159.474 121.584 159.784V159.931C121.956 159.908 122.331 159.897 122.709 159.897ZM124.107 161.601C124.117 161.369 123.935 161.172 123.703 161.163C123.47 161.154 123.274 161.335 123.264 161.568L123.129 164.943C123.12 165.175 123.301 165.372 123.534 165.381C123.767 165.39 123.963 165.209 123.972 164.976L124.107 161.601ZM122.154 161.568C122.145 161.335 121.949 161.154 121.716 161.163C121.483 161.172 121.302 161.369 121.311 161.601L121.446 164.976C121.456 165.209 121.652 165.39 121.885 165.381C122.117 165.372 122.299 165.175 122.289 164.943L122.154 161.568Z" fill="#CBD5E1"/>
</g>
<line x1="135.209" y1="163.097" x2="165.209" y2="163.097" stroke="#CBD5E1" stroke-opacity="0.5" stroke-width="6" stroke-linecap="round"/>
<rect x="200.209" y="158.097" width="9" height="9" rx="2" fill="#CBD5E1" fill-opacity="0.5"/>
</g>
<rect x="112.5" y="47.9341" width="105.418" height="125.663" rx="2.5" stroke="url(#paint2_linear_993_2863)" stroke-opacity="0.7"/>
</g>
</g>
<defs>
<linearGradient id="paint0_linear_993_2863" x1="164.5" y1="0" x2="164.5" y2="78.7086" gradientUnits="userSpaceOnUse">
<stop stop-color="#CBD5E1"/>
<stop offset="1" stop-color="#CBD5E1" stop-opacity="0"/>
</linearGradient>
<linearGradient id="paint1_linear_993_2863" x1="164.5" y1="-1.02658e-07" x2="164.52" y2="117.577" gradientUnits="userSpaceOnUse">
<stop stop-color="#CBD5E1"/>
<stop offset="1" stop-color="#CBD5E1" stop-opacity="0"/>
</linearGradient>
<linearGradient id="paint2_linear_993_2863" x1="165.209" y1="47.4341" x2="165.209" y2="174.097" gradientUnits="userSpaceOnUse">
<stop stop-color="#CBD5E1"/>
<stop offset="1" stop-color="#CBD5E1" stop-opacity="0"/>
</linearGradient>
<clipPath id="clip0_993_2863">
<rect width="329" height="173" fill="white"/>
</clipPath>
<clipPath id="clip1_993_2863">
<rect width="106.418" height="131.097" fill="white" transform="translate(112 43)"/>
</clipPath>
<clipPath id="clip2_993_2863">
<rect width="8.99999" height="8.99999" fill="white" transform="translate(118.209 76.9883)"/>
</clipPath>
<clipPath id="clip3_993_2863">
<rect width="8.99999" height="8.99999" fill="white" transform="translate(118.209 94.9883)"/>
</clipPath>
<clipPath id="clip4_993_2863">
<rect width="8.99999" height="8.99999" fill="white" transform="translate(118.209 117.543)"/>
</clipPath>
<clipPath id="clip5_993_2863">
<rect width="8.99999" height="8.99999" fill="white" transform="translate(118.209 158.097)"/>
</clipPath>
</defs>
</svg>
