<svg width="328" height="173" viewBox="0 0 328 173" fill="none" xmlns="http://www.w3.org/2000/svg">
<g clip-path="url(#clip0_666_1606)">
<rect width="328" height="173" rx="6" fill="url(#paint0_linear_666_1606)" fill-opacity="0.2"/>
<rect x="0.5" y="0.5" width="327" height="172" rx="5.5" stroke="url(#paint1_linear_666_1606)" stroke-opacity="0.4"/>
<rect x="110.597" y="24" width="55" height="18" rx="3" fill="white" fill-opacity="0.1"/>
<line x1="118.597" y1="33" x2="138.597" y2="33" stroke="white" stroke-opacity="0.1" stroke-width="6" stroke-linecap="round"/>
<path d="M157.195 32.398L157.195 32.3982C157.212 32.4152 157.226 32.4355 157.235 32.4578C157.244 32.4802 157.249 32.5041 157.249 32.5283C157.249 32.5525 157.244 32.5765 157.235 32.5988C157.226 32.6211 157.212 32.6413 157.195 32.6584C157.195 32.6584 157.195 32.6585 157.195 32.6585L155.229 34.6015L155.229 34.6015L155.227 34.6034C155.21 34.6206 155.19 34.6343 155.167 34.6436L155.273 34.8974L155.167 34.6436C155.145 34.6529 155.121 34.6577 155.097 34.6577C155.073 34.6577 155.049 34.6529 155.026 34.6436L154.921 34.8974L155.026 34.6436C155.004 34.6343 154.984 34.6206 154.967 34.6034L154.967 34.6034L154.966 34.6026L153.023 32.6593L153.023 32.6593L153.022 32.6585C153.005 32.6415 152.991 32.6212 152.982 32.5988C152.972 32.5765 152.967 32.5525 152.967 32.5283C152.967 32.5041 152.972 32.4802 152.982 32.4578C152.991 32.4355 153.005 32.4152 153.022 32.3982L153.022 32.398C153.056 32.3638 153.103 32.3446 153.151 32.3446C153.2 32.3446 153.246 32.3637 153.28 32.3977C153.28 32.3978 153.28 32.3979 153.28 32.398L154.902 34.0199L155.095 34.213L155.29 34.0212L156.935 32.3987L156.936 32.398C156.97 32.3638 157.017 32.3446 157.065 32.3446C157.114 32.3446 157.16 32.3638 157.195 32.398Z" stroke="white" stroke-opacity="0.32" stroke-width="0.55"/>
<g clip-path="url(#clip1_666_1606)">
<rect x="110.597" y="47.0852" width="106.418" height="126.663" rx="3" fill="url(#paint2_linear_666_1606)" fill-opacity="0.1"/>
<ellipse cx="121.306" cy="58.5852" rx="4.5669" ry="4.56691" fill="white" fill-opacity="0.1"/>
<line x1="133.806" y1="59.0852" x2="153.806" y2="59.0852" stroke="white" stroke-opacity="0.1" stroke-width="6" stroke-linecap="round"/>
<rect x="110.597" y="70.0852" width="106.418" height="0.55426" fill="white" fill-opacity="0.05"/>
<path d="M119.251 82.902L119.818 81.4825C119.909 81.2562 120.045 81.0506 120.217 80.8782L123.331 77.7648C123.703 77.392 124.308 77.392 124.681 77.7648C125.053 78.1376 125.053 78.742 124.681 79.1148L121.567 82.2282C121.395 82.4006 121.189 82.5362 120.963 82.6267L119.543 83.1945C119.359 83.268 119.177 83.0857 119.251 82.902Z" fill="white" fill-opacity="0.32"/>
<path d="M118.381 79.227C118.381 78.9163 118.633 78.6645 118.943 78.6645H121.306C121.492 78.6645 121.643 78.5134 121.643 78.327C121.643 78.1406 121.492 77.9895 121.306 77.9895H118.943C118.26 77.9895 117.706 78.5435 117.706 79.227V83.502C117.706 84.1854 118.26 84.7395 118.943 84.7395H123.218C123.902 84.7395 124.456 84.1854 124.456 83.502V81.1395C124.456 80.9531 124.305 80.802 124.118 80.802C123.932 80.802 123.781 80.9531 123.781 81.1395V83.502C123.781 83.8127 123.529 84.0645 123.218 84.0645H118.943C118.633 84.0645 118.381 83.8127 118.381 83.502V79.227Z" fill="white" fill-opacity="0.32"/>
<line x1="133.806" y1="81.6395" x2="153.806" y2="81.6395" stroke="white" stroke-opacity="0.1" stroke-width="6" stroke-linecap="round"/>
<rect x="198.806" y="76.6395" width="9" height="9" rx="2" fill="white" fill-opacity="0.1"/>
<path d="M119.956 96.2144C119.956 95.8416 120.258 95.5394 120.631 95.5394H122.376C122.555 95.5394 122.727 95.6105 122.853 95.7371L124.258 97.1417C124.385 97.2683 124.456 97.44 124.456 97.619V100.264C124.456 100.637 124.154 100.939 123.781 100.939H123.331V99.419C123.331 99.061 123.188 98.7176 122.935 98.4644L121.531 97.0598C121.278 96.8067 120.934 96.6644 120.576 96.6644H119.956V96.2144Z" fill="white" fill-opacity="0.32"/>
<path d="M118.831 97.3394C118.458 97.3394 118.156 97.6416 118.156 98.0144V102.064C118.156 102.437 118.458 102.739 118.831 102.739H121.981C122.354 102.739 122.656 102.437 122.656 102.064V99.419C122.656 99.24 122.585 99.0683 122.458 98.9417L121.053 97.5371C120.927 97.4105 120.755 97.3394 120.576 97.3394H118.831Z" fill="white" fill-opacity="0.32"/>
<line x1="133.806" y1="99.6395" x2="163.806" y2="99.6395" stroke="white" stroke-opacity="0.1" stroke-width="6" stroke-linecap="round"/>
<rect x="198.806" y="94.6395" width="9" height="9" rx="2" fill="white" fill-opacity="0.1"/>
<rect x="110.597" y="110.639" width="106.418" height="0.55426" fill="white" fill-opacity="0.05"/>
<g clip-path="url(#clip2_666_1606)">
<path d="M117.706 118.544C117.457 118.544 117.256 118.745 117.256 118.994V119.444C117.256 119.692 117.457 119.894 117.706 119.894H124.906C125.154 119.894 125.356 119.692 125.356 119.444V118.994C125.356 118.745 125.154 118.544 124.906 118.544H117.706Z" fill="white" fill-opacity="0.32"/>
<path fill-rule="evenodd" clip-rule="evenodd" d="M117.706 120.569H124.906L124.541 124.038C124.492 124.496 124.106 124.844 123.645 124.844H118.966C118.505 124.844 118.119 124.496 118.071 124.038L117.706 120.569ZM119.956 122.144C119.956 121.895 120.157 121.694 120.406 121.694H122.206C122.454 121.694 122.656 121.895 122.656 122.144C122.656 122.392 122.454 122.594 122.206 122.594H120.406C120.157 122.594 119.956 122.392 119.956 122.144Z" fill="white" fill-opacity="0.32"/>
</g>
<line x1="133.806" y1="122.194" x2="155.806" y2="122.194" stroke="white" stroke-opacity="0.1" stroke-width="6" stroke-linecap="round"/>
<g opacity="0.36">
<path fill-rule="evenodd" clip-rule="evenodd" d="M121.306 143.294C123.294 143.294 124.906 141.682 124.906 139.694C124.906 137.705 123.294 136.094 121.306 136.094C119.318 136.094 117.706 137.705 117.706 139.694C117.706 141.682 119.318 143.294 121.306 143.294ZM119.843 139.356C119.657 139.356 119.506 139.507 119.506 139.694C119.506 139.88 119.657 140.031 119.843 140.031H121.909L120.964 140.909C120.827 141.036 120.819 141.249 120.946 141.386C121.073 141.522 121.286 141.53 121.423 141.404L122.998 139.941C123.067 139.877 123.106 139.788 123.106 139.694C123.106 139.6 123.067 139.51 122.998 139.446L121.423 137.984C121.286 137.857 121.073 137.865 120.946 138.002C120.819 138.138 120.827 138.352 120.964 138.479L121.909 139.356H119.843Z" fill="white" fill-opacity="0.32"/>
<line x1="133.806" y1="140.194" x2="149.806" y2="140.194" stroke="white" stroke-opacity="0.1" stroke-width="6" stroke-linecap="round"/>
</g>
<rect x="110.597" y="151.194" width="106.418" height="0.55426" fill="white" fill-opacity="0.05"/>
<g opacity="0.06">
<g clip-path="url(#clip3_666_1606)">
<path fill-rule="evenodd" clip-rule="evenodd" d="M120.743 158.198C120.06 158.198 119.506 158.752 119.506 159.435V159.635C119.148 159.669 118.793 159.714 118.441 159.769C118.257 159.798 118.131 159.97 118.16 160.155C118.189 160.339 118.361 160.465 118.545 160.436L118.612 160.426L118.99 165.159C119.042 165.802 119.579 166.298 120.224 166.298H122.387C123.032 166.298 123.569 165.802 123.621 165.159L124 160.426L124.066 160.436C124.25 160.465 124.423 160.339 124.452 160.155C124.48 159.97 124.354 159.798 124.17 159.769C123.819 159.714 123.464 159.669 123.106 159.635V159.435C123.106 158.752 122.552 158.198 121.868 158.198H120.743ZM121.306 159.548C121.683 159.548 122.059 159.559 122.431 159.582V159.435C122.431 159.125 122.179 158.873 121.868 158.873H120.743C120.433 158.873 120.181 159.125 120.181 159.435V159.582C120.553 159.559 120.928 159.548 121.306 159.548ZM122.704 161.252C122.713 161.02 122.532 160.823 122.299 160.814C122.066 160.805 121.87 160.986 121.861 161.219L121.726 164.594C121.716 164.826 121.898 165.023 122.13 165.032C122.363 165.041 122.559 164.86 122.569 164.627L122.704 161.252ZM120.751 161.219C120.741 160.986 120.545 160.805 120.312 160.814C120.08 160.823 119.898 161.02 119.908 161.252L120.043 164.627C120.052 164.86 120.248 165.041 120.481 165.032C120.714 165.023 120.895 164.826 120.886 164.594L120.751 161.219Z" fill="#9CA3AF"/>
</g>
<line x1="133.806" y1="162.748" x2="163.806" y2="162.748" stroke="white" stroke-opacity="0.1" stroke-width="6" stroke-linecap="round"/>
<rect x="198.806" y="157.748" width="9" height="9" rx="2" fill="white" fill-opacity="0.1"/>
</g>
</g>
</g>
<defs>
<linearGradient id="paint0_linear_666_1606" x1="164" y1="0" x2="164" y2="78.7086" gradientUnits="userSpaceOnUse">
<stop stop-color="white"/>
<stop offset="1" stop-color="white" stop-opacity="0"/>
</linearGradient>
<linearGradient id="paint1_linear_666_1606" x1="164" y1="-1.02658e-07" x2="164.02" y2="117.577" gradientUnits="userSpaceOnUse">
<stop stop-color="white"/>
<stop offset="1" stop-color="white" stop-opacity="0"/>
</linearGradient>
<linearGradient id="paint2_linear_666_1606" x1="163.806" y1="47.0852" x2="163.806" y2="173.748" gradientUnits="userSpaceOnUse">
<stop stop-color="white"/>
<stop offset="1" stop-color="white" stop-opacity="0"/>
</linearGradient>
<clipPath id="clip0_666_1606">
<rect width="328" height="173" fill="white"/>
</clipPath>
<clipPath id="clip1_666_1606">
<rect width="106.418" height="131.097" fill="white" transform="translate(110.597 42.6511)"/>
</clipPath>
<clipPath id="clip2_666_1606">
<rect width="8.99999" height="8.99999" fill="white" transform="translate(116.806 117.194)"/>
</clipPath>
<clipPath id="clip3_666_1606">
<rect width="8.99999" height="8.99999" fill="white" transform="translate(116.806 157.748)"/>
</clipPath>
</defs>
</svg>
