<svg width="329" height="173" viewBox="0 0 329 173" fill="none" xmlns="http://www.w3.org/2000/svg">
<g clip-path="url(#clip0_889_19310)">
<rect x="1" y="0.5" width="327" height="172" rx="5.5" stroke="url(#paint0_linear_889_19310)" stroke-opacity="0.25"/>
<line x1="119.097" y1="33" x2="139.097" y2="33" stroke="#1E293B" stroke-opacity="0.1" stroke-width="6" stroke-linecap="round"/>
<path d="M157.695 32.398L157.695 32.3982C157.712 32.4153 157.726 32.4356 157.735 32.4579C157.744 32.4802 157.749 32.5042 157.749 32.5284C157.749 32.5526 157.744 32.5766 157.735 32.5989C157.726 32.6212 157.712 32.6414 157.695 32.6584C157.695 32.6585 157.695 32.6585 157.695 32.6586L155.729 34.6016L155.729 34.6015L155.727 34.6035C155.71 34.6207 155.69 34.6343 155.667 34.6436L155.773 34.8975L155.667 34.6436C155.645 34.6529 155.621 34.6577 155.597 34.6577C155.573 34.6577 155.549 34.6529 155.526 34.6436L155.421 34.8975L155.526 34.6436C155.504 34.6343 155.484 34.6207 155.467 34.6035L155.467 34.6035L155.466 34.6027L153.523 32.6594L153.523 32.6594L153.522 32.6586C153.505 32.6415 153.491 32.6212 153.482 32.5989C153.472 32.5766 153.468 32.5526 153.468 32.5284C153.468 32.5042 153.472 32.4802 153.482 32.4579C153.491 32.4356 153.505 32.4153 153.522 32.3982L153.522 32.398C153.556 32.3639 153.603 32.3447 153.651 32.3447C153.7 32.3447 153.746 32.3638 153.78 32.3978C153.78 32.3979 153.78 32.3979 153.78 32.398L155.402 34.0199L155.595 34.213L155.79 34.0213L157.435 32.3988L157.436 32.398C157.47 32.3639 157.517 32.3447 157.565 32.3447C157.614 32.3447 157.66 32.3639 157.695 32.398Z" stroke="#1E293B" stroke-opacity="0.32" stroke-width="0.55"/>
<rect x="111.597" y="24.5" width="54" height="17" rx="2.5" stroke="#1E293B" stroke-opacity="0.1"/>
<g clip-path="url(#clip1_889_19310)">
<ellipse cx="121.806" cy="58.5852" rx="4.5669" ry="4.56691" fill="#1E293B" fill-opacity="0.1"/>
<line x1="134.306" y1="59.0852" x2="154.306" y2="59.0852" stroke="#1E293B" stroke-opacity="0.1" stroke-width="6" stroke-linecap="round"/>
<rect x="111.097" y="70.0852" width="106.418" height="0.55426" fill="#1E293B" fill-opacity="0.05"/>
<path d="M119.751 82.9019L120.318 81.4824C120.409 81.2561 120.545 81.0505 120.717 80.8781L123.831 77.7647C124.203 77.3919 124.808 77.3919 125.181 77.7647C125.553 78.1375 125.553 78.7419 125.181 79.1147L122.067 82.2281C121.895 82.4005 121.689 82.5361 121.463 82.6266L120.043 83.1944C119.859 83.2679 119.677 83.0856 119.751 82.9019Z" fill="#1E293B" fill-opacity="0.32"/>
<path d="M118.881 79.2269C118.881 78.9162 119.133 78.6644 119.443 78.6644H121.806C121.992 78.6644 122.143 78.5133 122.143 78.3269C122.143 78.1405 121.992 77.9894 121.806 77.9894H119.443C118.76 77.9894 118.206 78.5434 118.206 79.2269V83.5019C118.206 84.1853 118.76 84.7394 119.443 84.7394H123.718C124.402 84.7394 124.956 84.1853 124.956 83.5019V81.1394C124.956 80.953 124.805 80.8019 124.618 80.8019C124.432 80.8019 124.281 80.953 124.281 81.1394V83.5019C124.281 83.8125 124.029 84.0644 123.718 84.0644H119.443C119.133 84.0644 118.881 83.8125 118.881 83.5019V79.2269Z" fill="#1E293B" fill-opacity="0.32"/>
<line x1="134.306" y1="81.6395" x2="154.306" y2="81.6395" stroke="#1E293B" stroke-opacity="0.1" stroke-width="6" stroke-linecap="round"/>
<rect x="199.306" y="76.6395" width="9" height="9" rx="2" fill="#1E293B" fill-opacity="0.1"/>
<path d="M120.456 96.2145C120.456 95.8417 120.758 95.5395 121.131 95.5395H122.876C123.055 95.5395 123.227 95.6106 123.353 95.7372L124.758 97.1418C124.885 97.2684 124.956 97.4401 124.956 97.6191V100.264C124.956 100.637 124.654 100.939 124.281 100.939H123.831V99.4191C123.831 99.061 123.689 98.7177 123.435 98.4645L122.031 97.0599C121.778 96.8067 121.434 96.6645 121.076 96.6645H120.456V96.2145Z" fill="#1E293B" fill-opacity="0.32"/>
<path d="M119.331 97.3395C118.958 97.3395 118.656 97.6417 118.656 98.0145V102.064C118.656 102.437 118.958 102.739 119.331 102.739H122.481C122.854 102.739 123.156 102.437 123.156 102.064V99.4191C123.156 99.2401 123.085 99.0684 122.958 98.9418L121.553 97.5372C121.427 97.4106 121.255 97.3395 121.076 97.3395H119.331Z" fill="#1E293B" fill-opacity="0.32"/>
<line x1="134.306" y1="99.6395" x2="164.306" y2="99.6395" stroke="#1E293B" stroke-opacity="0.1" stroke-width="6" stroke-linecap="round"/>
<rect x="199.306" y="94.6395" width="9" height="9" rx="2" fill="#1E293B" fill-opacity="0.1"/>
<rect x="111.097" y="110.639" width="106.418" height="0.55426" fill="#1E293B" fill-opacity="0.05"/>
<g clip-path="url(#clip2_889_19310)">
<path d="M118.206 118.544C117.957 118.544 117.756 118.745 117.756 118.994V119.444C117.756 119.692 117.957 119.894 118.206 119.894H125.406C125.654 119.894 125.856 119.692 125.856 119.444V118.994C125.856 118.745 125.654 118.544 125.406 118.544H118.206Z" fill="#1E293B" fill-opacity="0.32"/>
<path fill-rule="evenodd" clip-rule="evenodd" d="M118.206 120.569H125.406L125.041 124.038C124.992 124.496 124.606 124.844 124.146 124.844H119.466C119.006 124.844 118.619 124.496 118.571 124.038L118.206 120.569ZM120.456 122.144C120.456 121.895 120.657 121.694 120.906 121.694H122.706C122.954 121.694 123.156 121.895 123.156 122.144C123.156 122.392 122.954 122.594 122.706 122.594H120.906C120.657 122.594 120.456 122.392 120.456 122.144Z" fill="#1E293B" fill-opacity="0.32"/>
</g>
<line x1="134.306" y1="122.194" x2="156.306" y2="122.194" stroke="#1E293B" stroke-opacity="0.1" stroke-width="6" stroke-linecap="round"/>
<g opacity="0.36">
<path fill-rule="evenodd" clip-rule="evenodd" d="M121.806 143.294C123.794 143.294 125.406 141.682 125.406 139.694C125.406 137.706 123.794 136.094 121.806 136.094C119.818 136.094 118.206 137.706 118.206 139.694C118.206 141.682 119.818 143.294 121.806 143.294ZM120.343 139.356C120.157 139.356 120.006 139.507 120.006 139.694C120.006 139.88 120.157 140.031 120.343 140.031H122.409L121.464 140.909C121.327 141.036 121.319 141.249 121.446 141.386C121.573 141.522 121.786 141.53 121.923 141.404L123.498 139.941C123.567 139.877 123.606 139.788 123.606 139.694C123.606 139.6 123.567 139.51 123.498 139.446L121.923 137.984C121.786 137.857 121.573 137.865 121.446 138.002C121.319 138.138 121.327 138.352 121.464 138.479L122.409 139.356H120.343Z" fill="#1E293B" fill-opacity="0.32"/>
<line x1="134.306" y1="140.194" x2="150.306" y2="140.194" stroke="#1E293B" stroke-opacity="0.1" stroke-width="6" stroke-linecap="round"/>
</g>
<rect x="111.097" y="151.194" width="106.418" height="0.55426" fill="#1E293B" fill-opacity="0.03"/>
<g opacity="0.06">
<g clip-path="url(#clip3_889_19310)">
<path fill-rule="evenodd" clip-rule="evenodd" d="M121.243 158.198C120.56 158.198 120.006 158.752 120.006 159.436V159.635C119.648 159.669 119.293 159.714 118.941 159.769C118.757 159.798 118.631 159.97 118.66 160.155C118.689 160.339 118.861 160.465 119.045 160.436L119.112 160.426L119.491 165.159C119.542 165.802 120.079 166.298 120.724 166.298H122.887C123.533 166.298 124.069 165.802 124.121 165.159L124.5 160.426L124.566 160.436C124.75 160.465 124.923 160.339 124.952 160.155C124.98 159.97 124.854 159.798 124.67 159.769C124.319 159.714 123.964 159.669 123.606 159.635V159.436C123.606 158.752 123.052 158.198 122.368 158.198H121.243ZM121.806 159.548C122.184 159.548 122.559 159.559 122.931 159.582V159.436C122.931 159.125 122.679 158.873 122.368 158.873H121.243C120.933 158.873 120.681 159.125 120.681 159.436V159.582C121.053 159.559 121.428 159.548 121.806 159.548ZM123.204 161.252C123.213 161.02 123.032 160.823 122.799 160.814C122.566 160.805 122.37 160.986 122.361 161.219L122.226 164.594C122.216 164.827 122.398 165.023 122.63 165.032C122.863 165.041 123.059 164.86 123.069 164.627L123.204 161.252ZM121.251 161.219C121.241 160.986 121.045 160.805 120.812 160.814C120.58 160.823 120.398 161.02 120.408 161.252L120.543 164.627C120.552 164.86 120.748 165.041 120.981 165.032C121.214 165.023 121.395 164.827 121.386 164.594L121.251 161.219Z" fill="#9CA3AF"/>
</g>
<line x1="134.306" y1="162.748" x2="164.306" y2="162.748" stroke="#1E293B" stroke-opacity="0.1" stroke-width="6" stroke-linecap="round"/>
<rect x="199.306" y="157.748" width="9" height="9" rx="2" fill="#1E293B" fill-opacity="0.1"/>
</g>
<rect x="111.597" y="47.5852" width="105.418" height="125.663" rx="2.5" stroke="url(#paint1_linear_889_19310)" stroke-opacity="0.1"/>
</g>
</g>
<defs>
<linearGradient id="paint0_linear_889_19310" x1="164.5" y1="-1.02658e-07" x2="164.52" y2="117.577" gradientUnits="userSpaceOnUse">
<stop stop-color="#1E293B"/>
<stop offset="1" stop-color="#1E293B" stop-opacity="0"/>
</linearGradient>
<linearGradient id="paint1_linear_889_19310" x1="164.306" y1="47.0852" x2="164.306" y2="173.748" gradientUnits="userSpaceOnUse">
<stop stop-color="#1E293B"/>
<stop offset="1" stop-color="#1E293B" stop-opacity="0"/>
</linearGradient>
<clipPath id="clip0_889_19310">
<rect width="328" height="173" fill="white" transform="translate(0.5)"/>
</clipPath>
<clipPath id="clip1_889_19310">
<rect width="106.418" height="131.097" fill="white" transform="translate(111.097 42.6511)"/>
</clipPath>
<clipPath id="clip2_889_19310">
<rect width="8.99999" height="8.99999" fill="white" transform="translate(117.306 117.194)"/>
</clipPath>
<clipPath id="clip3_889_19310">
<rect width="8.99999" height="8.99999" fill="white" transform="translate(117.306 157.748)"/>
</clipPath>
</defs>
</svg>
