<svg width="329" height="173" viewBox="0 0 329 173" fill="none" xmlns="http://www.w3.org/2000/svg">
<g clip-path="url(#clip0_993_2342)">
<rect x="0.5" y="0.5" width="328" height="172" rx="5.5" fill="url(#paint0_linear_993_2342)" fill-opacity="0.5" stroke="url(#paint1_linear_993_2342)"/>
<rect x="111.597" y="24" width="55" height="18" rx="3" fill="#475569" fill-opacity="0.32"/>
<line x1="119.597" y1="33" x2="139.597" y2="33" stroke="#475569" stroke-opacity="0.3" stroke-width="6" stroke-linecap="round"/>
<path d="M158.194 32.398L158.195 32.3982C158.212 32.4153 158.226 32.4356 158.235 32.4579C158.244 32.4802 158.249 32.5042 158.249 32.5284C158.249 32.5526 158.244 32.5766 158.235 32.5989C158.226 32.6212 158.212 32.6414 158.195 32.6584C158.195 32.6585 158.195 32.6585 158.195 32.6586L156.229 34.6016L156.229 34.6015L156.227 34.6035C156.21 34.6207 156.19 34.6343 156.167 34.6436L156.273 34.8975L156.167 34.6436C156.145 34.6529 156.121 34.6577 156.097 34.6577C156.073 34.6577 156.049 34.6529 156.026 34.6436L155.92 34.8975L156.026 34.6436C156.004 34.6343 155.984 34.6207 155.967 34.6035L155.967 34.6035L155.966 34.6027L154.022 32.6594L154.022 32.6594L154.022 32.6586C154.004 32.6415 153.991 32.6212 153.981 32.5989C153.972 32.5766 153.967 32.5526 153.967 32.5284C153.967 32.5042 153.972 32.4802 153.981 32.4579C153.991 32.4356 154.004 32.4153 154.022 32.3982L154.022 32.398C154.056 32.3639 154.103 32.3447 154.151 32.3447C154.199 32.3447 154.246 32.3638 154.28 32.3978C154.28 32.3979 154.28 32.3979 154.28 32.398L155.902 34.0199L156.095 34.213L156.29 34.0213L157.935 32.3988L157.936 32.398C157.97 32.3639 158.017 32.3447 158.065 32.3447C158.114 32.3447 158.16 32.3639 158.194 32.398Z" stroke="#475569" stroke-opacity="0.32" stroke-width="0.55"/>
<g clip-path="url(#clip1_993_2342)">
<rect x="111.597" y="47.0852" width="106.418" height="126.663" rx="3" fill="url(#paint2_linear_993_2342)" fill-opacity="0.32"/>
<ellipse cx="122.306" cy="58.5852" rx="4.5669" ry="4.56691" fill="#475569" fill-opacity="0.3"/>
<line x1="134.806" y1="59.0852" x2="154.806" y2="59.0852" stroke="#475569" stroke-opacity="0.3" stroke-width="6" stroke-linecap="round"/>
<rect x="111.597" y="70.0852" width="106.418" height="0.55426" fill="#475569" fill-opacity="0.23"/>
<path d="M120.25 82.9019L120.818 81.4824C120.909 81.2561 121.044 81.0505 121.217 80.8781L124.33 77.7647C124.703 77.3919 125.308 77.3919 125.68 77.7647C126.053 78.1375 126.053 78.7419 125.68 79.1147L122.567 82.2281C122.394 82.4005 122.189 82.5361 121.962 82.6266L120.543 83.1944C120.359 83.2679 120.177 83.0856 120.25 82.9019Z" fill="#475569" fill-opacity="0.32"/>
<path d="M119.381 79.2269C119.381 78.9162 119.632 78.6644 119.943 78.6644H122.306C122.492 78.6644 122.643 78.5133 122.643 78.3269C122.643 78.1405 122.492 77.9894 122.306 77.9894H119.943C119.26 77.9894 118.706 78.5434 118.706 79.2269V83.5019C118.706 84.1853 119.26 84.7394 119.943 84.7394H124.218C124.902 84.7394 125.456 84.1853 125.456 83.5019V81.1394C125.456 80.953 125.304 80.8019 125.118 80.8019C124.932 80.8019 124.781 80.953 124.781 81.1394V83.5019C124.781 83.8125 124.529 84.0644 124.218 84.0644H119.943C119.632 84.0644 119.381 83.8125 119.381 83.5019V79.2269Z" fill="#475569" fill-opacity="0.32"/>
<line x1="134.806" y1="81.6394" x2="154.806" y2="81.6394" stroke="#475569" stroke-opacity="0.3" stroke-width="6" stroke-linecap="round"/>
<rect x="199.806" y="76.6394" width="9" height="9" rx="2" fill="#475569" fill-opacity="0.3"/>
<path d="M120.956 96.2144C120.956 95.8416 121.258 95.5394 121.631 95.5394H123.376C123.555 95.5394 123.727 95.6105 123.853 95.7371L125.258 97.1417C125.385 97.2683 125.456 97.44 125.456 97.619V100.264C125.456 100.637 125.154 100.939 124.781 100.939H124.331V99.419C124.331 99.061 124.189 98.7176 123.935 98.4644L122.531 97.0598C122.278 96.8067 121.934 96.6644 121.576 96.6644H120.956V96.2144Z" fill="#475569" fill-opacity="0.32"/>
<path d="M119.831 97.3394C119.458 97.3394 119.156 97.6416 119.156 98.0144V102.064C119.156 102.437 119.458 102.739 119.831 102.739H122.981C123.354 102.739 123.656 102.437 123.656 102.064V99.419C123.656 99.24 123.585 99.0683 123.458 98.9417L122.053 97.5371C121.927 97.4105 121.755 97.3394 121.576 97.3394H119.831Z" fill="#475569" fill-opacity="0.32"/>
<line x1="134.806" y1="99.6394" x2="164.806" y2="99.6394" stroke="#475569" stroke-opacity="0.3" stroke-width="6" stroke-linecap="round"/>
<rect x="199.806" y="94.6394" width="9" height="9" rx="2" fill="#475569" fill-opacity="0.3"/>
<rect x="111.597" y="110.639" width="106.418" height="0.55426" fill="#475569" fill-opacity="0.23"/>
<g clip-path="url(#clip2_993_2342)">
<path d="M118.706 118.544C118.457 118.544 118.256 118.745 118.256 118.994V119.444C118.256 119.692 118.457 119.894 118.706 119.894H125.906C126.154 119.894 126.356 119.692 126.356 119.444V118.994C126.356 118.745 126.154 118.544 125.906 118.544H118.706Z" fill="#475569" fill-opacity="0.32"/>
<path fill-rule="evenodd" clip-rule="evenodd" d="M118.706 120.569H125.906L125.541 124.038C125.492 124.496 125.106 124.844 124.646 124.844H119.966C119.506 124.844 119.119 124.496 119.071 124.038L118.706 120.569ZM120.956 122.144C120.956 121.895 121.157 121.694 121.406 121.694H123.206C123.454 121.694 123.656 121.895 123.656 122.144C123.656 122.392 123.454 122.594 123.206 122.594H121.406C121.157 122.594 120.956 122.392 120.956 122.144Z" fill="#475569" fill-opacity="0.32"/>
</g>
<line x1="134.806" y1="122.194" x2="156.806" y2="122.194" stroke="#475569" stroke-opacity="0.3" stroke-width="6" stroke-linecap="round"/>
<g opacity="0.36">
<path fill-rule="evenodd" clip-rule="evenodd" d="M122.306 143.294C124.294 143.294 125.906 141.682 125.906 139.694C125.906 137.706 124.294 136.094 122.306 136.094C120.317 136.094 118.706 137.706 118.706 139.694C118.706 141.682 120.317 143.294 122.306 143.294ZM120.843 139.356C120.657 139.356 120.506 139.507 120.506 139.694C120.506 139.88 120.657 140.031 120.843 140.031H122.909L121.963 140.909C121.827 141.036 121.819 141.249 121.946 141.386C122.073 141.522 122.286 141.53 122.423 141.404L123.998 139.941C124.066 139.877 124.106 139.788 124.106 139.694C124.106 139.6 124.066 139.51 123.998 139.446L122.423 137.984C122.286 137.857 122.073 137.865 121.946 138.002C121.819 138.138 121.827 138.352 121.963 138.479L122.909 139.356H120.843Z" fill="#475569" fill-opacity="0.32"/>
<line x1="134.806" y1="140.194" x2="150.806" y2="140.194" stroke="#475569" stroke-opacity="0.3" stroke-width="6" stroke-linecap="round"/>
</g>
<rect x="111.597" y="151.194" width="106.418" height="0.55426" fill="#475569" fill-opacity="0.23"/>
<g opacity="0.06">
<g clip-path="url(#clip3_993_2342)">
<path fill-rule="evenodd" clip-rule="evenodd" d="M121.743 158.198C121.06 158.198 120.506 158.752 120.506 159.435V159.635C120.148 159.669 119.793 159.714 119.441 159.769C119.257 159.798 119.131 159.97 119.16 160.154C119.189 160.339 119.361 160.465 119.545 160.436L119.612 160.426L119.991 165.159C120.042 165.802 120.579 166.298 121.224 166.298H123.387C124.033 166.298 124.569 165.802 124.621 165.159L125 160.426L125.066 160.436C125.25 160.465 125.423 160.339 125.452 160.154C125.48 159.97 125.354 159.798 125.17 159.769C124.819 159.714 124.464 159.669 124.106 159.635V159.435C124.106 158.752 123.552 158.198 122.868 158.198H121.743ZM122.306 159.548C122.684 159.548 123.059 159.559 123.431 159.582V159.435C123.431 159.125 123.179 158.873 122.868 158.873H121.743C121.433 158.873 121.181 159.125 121.181 159.435V159.582C121.553 159.559 121.928 159.548 122.306 159.548ZM123.704 161.252C123.713 161.02 123.532 160.823 123.299 160.814C123.066 160.805 122.87 160.986 122.861 161.219L122.726 164.594C122.717 164.827 122.898 165.023 123.131 165.032C123.363 165.041 123.56 164.86 123.569 164.627L123.704 161.252ZM121.751 161.219C121.742 160.986 121.545 160.805 121.313 160.814C121.08 160.823 120.899 161.02 120.908 161.252L121.043 164.627C121.052 164.86 121.248 165.041 121.481 165.032C121.714 165.023 121.895 164.827 121.886 164.594L121.751 161.219Z" fill="#475569"/>
</g>
<line x1="134.806" y1="162.748" x2="164.806" y2="162.748" stroke="#475569" stroke-opacity="0.3" stroke-width="6" stroke-linecap="round"/>
<rect x="199.806" y="157.748" width="9" height="9" rx="2" fill="#475569" fill-opacity="0.3"/>
</g>
</g>
</g>
<defs>
<linearGradient id="paint0_linear_993_2342" x1="164.5" y1="0" x2="164.5" y2="78.7086" gradientUnits="userSpaceOnUse">
<stop stop-color="#475569"/>
<stop offset="1" stop-color="#475569" stop-opacity="0"/>
</linearGradient>
<linearGradient id="paint1_linear_993_2342" x1="164.5" y1="-1.02658e-07" x2="164.52" y2="117.577" gradientUnits="userSpaceOnUse">
<stop stop-color="#475569"/>
<stop offset="1" stop-color="#475569" stop-opacity="0"/>
</linearGradient>
<linearGradient id="paint2_linear_993_2342" x1="164.806" y1="47.0852" x2="164.806" y2="173.748" gradientUnits="userSpaceOnUse">
<stop stop-color="#475569"/>
<stop offset="1" stop-color="#475569" stop-opacity="0"/>
</linearGradient>
<clipPath id="clip0_993_2342">
<rect width="329" height="173" fill="white"/>
</clipPath>
<clipPath id="clip1_993_2342">
<rect width="106.418" height="131.097" fill="white" transform="translate(111.597 42.6511)"/>
</clipPath>
<clipPath id="clip2_993_2342">
<rect width="8.99999" height="8.99999" fill="white" transform="translate(117.806 117.194)"/>
</clipPath>
<clipPath id="clip3_993_2342">
<rect width="8.99999" height="8.99999" fill="white" transform="translate(117.806 157.748)"/>
</clipPath>
</defs>
</svg>
