<svg width="330" height="173" viewBox="0 0 330 173" fill="none" xmlns="http://www.w3.org/2000/svg">
<g clip-path="url(#clip0_889_19357)">
<rect x="1" y="0.5" width="327" height="172" rx="5.5" stroke="url(#paint0_linear_889_19357)" stroke-opacity="0.25"/>
<line x1="83.5" y1="29" x2="95.5" y2="29" stroke="#1E293B" stroke-opacity="0.1" stroke-width="6" stroke-linecap="round"/>
<g clip-path="url(#clip1_889_19357)">
<path d="M91.7514 43.1536V46.6536C91.7514 46.8525 91.6724 47.0432 91.5317 47.1839C91.3911 47.3245 91.2003 47.4036 91.0014 47.4036H86.0014C85.8025 47.4036 85.6117 47.3245 85.4711 47.1839C85.3304 47.0432 85.2514 46.8525 85.2514 46.6536V43.1536M91.7514 43.1536C91.7514 42.9547 91.6724 42.7639 91.5317 42.6232C91.3911 42.4826 91.2003 42.4036 91.0014 42.4036H86.0014C85.8025 42.4036 85.6117 42.4826 85.4711 42.6232C85.3304 42.7639 85.2514 42.9547 85.2514 43.1536M91.7514 43.1536V43.2346C91.7514 43.3626 91.7186 43.4885 91.6562 43.6003C91.5938 43.7121 91.5038 43.8061 91.3947 43.8732L88.8947 45.4116C88.7765 45.4844 88.6403 45.523 88.5014 45.523C88.3625 45.523 88.2263 45.4844 88.1081 45.4116L85.6081 43.8736C85.499 43.8064 85.409 43.7125 85.3466 43.6007C85.2842 43.4889 85.2514 43.3629 85.2514 43.2349V43.1536" stroke="#1E293B" stroke-opacity="0.32" stroke-width="0.5" stroke-linecap="round" stroke-linejoin="round"/>
</g>
<line x1="100.5" y1="44.9034" x2="166.5" y2="44.9034" stroke="#1E293B" stroke-opacity="0.1" stroke-width="6" stroke-linecap="round"/>
<rect x="81" y="38.4034" width="167" height="13" rx="2.5" stroke="#1E293B" stroke-opacity="0.1"/>
<g opacity="0.8">
<line x1="83.5" y1="73" x2="118.5" y2="73" stroke="#1E293B" stroke-opacity="0.1" stroke-width="6" stroke-linecap="round"/>
<line x1="87.5" y1="88.9034" x2="153.5" y2="88.9034" stroke="#1E293B" stroke-opacity="0.1" stroke-width="6" stroke-linecap="round"/>
<rect x="81" y="82.4034" width="167" height="13" rx="2.5" stroke="#1E293B" stroke-opacity="0.1"/>
</g>
<g opacity="0.4">
<line x1="83.5" y1="117" x2="118.5" y2="117" stroke="#1E293B" stroke-opacity="0.1" stroke-width="6" stroke-linecap="round"/>
<line x1="87.5" y1="132.903" x2="153.5" y2="132.903" stroke="#1E293B" stroke-opacity="0.1" stroke-width="6" stroke-linecap="round"/>
<rect x="81" y="126.403" width="167" height="13" rx="2.5" stroke="#1E293B" stroke-opacity="0.1"/>
</g>
</g>
<defs>
<linearGradient id="paint0_linear_889_19357" x1="164.5" y1="-1.02658e-07" x2="164.52" y2="117.577" gradientUnits="userSpaceOnUse">
<stop stop-color="#1E293B"/>
<stop offset="1" stop-color="#1E293B" stop-opacity="0"/>
</linearGradient>
<clipPath id="clip0_889_19357">
<rect width="329" height="173" fill="white" transform="translate(0.5)"/>
</clipPath>
<clipPath id="clip1_889_19357">
<rect width="8" height="8" fill="white" transform="translate(84.5 40.9034)"/>
</clipPath>
</defs>
</svg>
