<svg width="362" height="184" viewBox="0 0 362 184" fill="none" xmlns="http://www.w3.org/2000/svg">
<g clip-path="url(#clip0_963_1393)">
<path d="M27.48 177.087C28.3156 175.967 28.889 174.673 29.1579 173.302C29.4269 171.931 29.3844 170.516 29.0338 169.164C28.6831 167.811 28.0332 166.554 27.132 165.486C26.2307 164.418 25.1012 163.566 23.8267 162.993C23.549 161.396 22.911 159.883 21.9611 158.57C21.0111 157.256 19.7743 156.176 18.3444 155.412C16.9146 154.648 15.3294 154.22 13.7094 154.16C12.0893 154.101 10.477 154.411 8.99497 155.068C7.5129 155.725 6.20008 156.711 5.15625 157.952C4.11242 159.192 3.36504 160.654 2.97091 162.227C2.57678 163.799 2.54627 165.441 2.88169 167.027C3.21711 168.613 3.90964 170.102 4.90665 171.38L3.05332 173.22C2.86831 173.408 2.74298 173.646 2.69315 173.904C2.64332 174.163 2.67122 174.431 2.77332 174.673C2.87335 174.917 3.04321 175.125 3.26151 175.272C3.4798 175.419 3.73675 175.499 3.99999 175.5H11.5867C12.3422 177.093 13.5334 178.439 15.0223 179.383C16.5113 180.327 18.2371 180.83 20 180.833H28C28.2632 180.832 28.5202 180.753 28.7385 180.606C28.9568 180.459 29.1266 180.25 29.2267 180.007C29.3288 179.764 29.3567 179.496 29.3068 179.238C29.257 178.979 29.1317 178.741 28.9467 178.553L27.48 177.087ZM10.6667 171.5C10.6685 171.947 10.7041 172.392 10.7733 172.833H7.21332L7.67999 172.38C7.80496 172.256 7.90415 172.109 7.97184 171.946C8.03954 171.784 8.07439 171.609 8.07439 171.433C8.07439 171.257 8.03954 171.083 7.97184 170.921C7.90415 170.758 7.80496 170.611 7.67999 170.487C6.93273 169.748 6.34032 168.867 5.93739 167.896C5.53446 166.926 5.3291 165.884 5.33332 164.833C5.33332 162.712 6.17618 160.677 7.67647 159.176C9.17676 157.676 11.2116 156.833 13.3333 156.833C14.9889 156.823 16.606 157.333 17.9572 158.289C19.3085 159.246 20.326 160.602 20.8667 162.167H20C17.5246 162.167 15.1507 163.15 13.4003 164.9C11.65 166.651 10.6667 169.025 10.6667 171.5ZM24.72 178.167L24.7867 178.233H20C18.4578 178.231 16.9642 177.693 15.7737 176.713C14.5833 175.732 13.7696 174.37 13.4712 172.856C13.1728 171.343 13.4083 169.774 14.1374 168.415C14.8666 167.056 16.0443 165.992 17.4701 165.404C18.8958 164.816 20.4813 164.74 21.9564 165.19C23.4316 165.64 24.7052 166.587 25.5602 167.871C26.4152 169.154 26.7988 170.694 26.6456 172.229C26.4924 173.764 25.8119 175.198 24.72 176.287C24.4688 176.533 24.325 176.868 24.32 177.22C24.3207 177.396 24.3565 177.571 24.4251 177.733C24.4938 177.896 24.594 178.043 24.72 178.167Z" fill="#CBD5E1"/>
<path d="M96.1347 154.249C96.0746 154.021 95.955 153.812 95.7879 153.645C95.6209 153.478 95.4125 153.359 95.184 153.299C92.449 152.588 89.5691 152.665 86.8757 153.52C84.1824 154.374 81.7851 155.972 79.96 158.129L78.472 159.895L75 159.057C74.1557 158.763 73.2333 158.784 72.4032 159.116C71.573 159.449 70.8914 160.071 70.484 160.867L67.5507 166.067C67.448 166.249 67.3895 166.452 67.38 166.661C67.3706 166.87 67.4103 167.078 67.4961 167.269C67.5819 167.459 67.7113 167.627 67.8738 167.759C68.0364 167.89 68.2276 167.981 68.432 168.025L72.5293 168.904C72.1824 169.96 71.9346 171.047 71.7893 172.149C71.7629 172.352 71.7833 172.557 71.849 172.751C71.9146 172.944 72.0238 173.12 72.168 173.264L76.3013 177.397C76.4253 177.521 76.5725 177.62 76.7344 177.687C76.8964 177.754 77.07 177.788 77.2453 177.788C77.2836 177.788 77.3219 177.786 77.36 177.783C78.4873 177.681 79.6009 177.462 80.6827 177.129L81.5413 181.135C81.5852 181.339 81.6766 181.53 81.808 181.693C81.9394 181.855 82.1072 181.985 82.2978 182.071C82.4885 182.156 82.6966 182.196 82.9054 182.187C83.1143 182.177 83.3179 182.119 83.5 182.016L88.7067 179.08C89.4396 178.635 90.0122 177.968 90.3417 177.176C90.6712 176.385 90.7407 175.509 90.54 174.675L89.6493 170.995L91.2987 169.479C93.4637 167.658 95.0674 165.261 95.9232 162.565C96.7791 159.869 96.8533 156.985 96.1347 154.249ZM70.7627 165.797L72.8373 162.117C72.9664 161.868 73.1861 161.677 73.4513 161.584C73.7166 161.491 74.0073 161.503 74.264 161.617L76.5547 162.172L75.688 163.201C74.866 164.186 74.1551 165.258 73.568 166.399L70.7627 165.797ZM87.3893 176.76L83.7693 178.803L83.196 176.129C84.3571 175.55 85.4389 174.824 86.4147 173.969L87.4053 173.059L87.944 175.277C88.0137 175.552 87.9979 175.841 87.8988 176.106C87.7996 176.371 87.6219 176.599 87.3893 176.76ZM89.5427 167.473L84.6293 171.988C82.6849 173.67 80.2865 174.738 77.736 175.06L74.5293 171.855C74.9599 169.297 76.0651 166.901 77.7307 164.913L79.9693 162.256C80.0065 162.217 80.0413 162.176 80.0733 162.133L81.9867 159.86C83.4014 158.189 85.2342 156.924 87.2979 156.193C89.3617 155.462 91.5824 155.292 93.7333 155.7C94.1511 157.858 93.9827 160.088 93.2457 162.158C92.5086 164.229 91.2299 166.065 89.5427 167.473ZM88.312 159.255C87.9164 159.255 87.5298 159.372 87.2009 159.592C86.872 159.812 86.6156 160.124 86.4642 160.489C86.3129 160.855 86.2733 161.257 86.3504 161.645C86.4276 162.033 86.6181 162.389 86.8978 162.669C87.1775 162.949 87.5339 163.139 87.9218 163.216C88.3098 163.293 88.7119 163.254 89.0774 163.102C89.4428 162.951 89.7552 162.695 89.9749 162.366C90.1947 162.037 90.312 161.65 90.312 161.255C90.312 160.724 90.1013 160.216 89.7262 159.84C89.3511 159.465 88.8424 159.255 88.312 159.255Z" fill="#CBD5E1"/>
<path d="M143.333 176.833C142.938 176.833 142.551 176.951 142.222 177.17C141.893 177.39 141.637 177.703 141.486 178.068C141.334 178.433 141.295 178.836 141.372 179.224C141.449 179.611 141.639 179.968 141.919 180.248C142.199 180.527 142.555 180.718 142.943 180.795C143.331 180.872 143.733 180.832 144.099 180.681C144.464 180.53 144.777 180.273 144.996 179.944C145.216 179.616 145.333 179.229 145.333 178.833C145.333 178.303 145.123 177.794 144.748 177.419C144.373 177.044 143.864 176.833 143.333 176.833ZM157.333 172.833H141.333C140.98 172.833 140.641 172.693 140.391 172.443C140.141 172.193 140 171.854 140 171.5C140 171.146 140.141 170.807 140.391 170.557C140.641 170.307 140.98 170.167 141.333 170.167H152.655C153.523 170.164 154.368 169.88 155.061 169.357C155.755 168.834 156.26 168.1 156.501 167.265L158.615 159.865C158.671 159.667 158.681 159.458 158.643 159.256C158.605 159.053 158.521 158.862 158.397 158.697C158.273 158.532 158.112 158.399 157.928 158.307C157.743 158.215 157.54 158.167 157.333 158.167H140.987C140.71 157.389 140.201 156.716 139.528 156.239C138.855 155.762 138.052 155.504 137.227 155.5H136C135.646 155.5 135.307 155.64 135.057 155.891C134.807 156.141 134.667 156.48 134.667 156.833C134.667 157.187 134.807 157.526 135.057 157.776C135.307 158.026 135.646 158.167 136 158.167H137.228C137.518 158.168 137.799 158.262 138.03 158.437C138.262 158.611 138.43 158.855 138.511 159.133L138.717 159.86V159.867L140.905 167.523C139.887 167.632 138.949 168.127 138.285 168.907C137.621 169.687 137.282 170.692 137.336 171.714C137.391 172.737 137.836 173.7 138.58 174.404C139.324 175.108 140.309 175.501 141.333 175.5H157.333C157.687 175.5 158.026 175.36 158.276 175.109C158.526 174.859 158.667 174.52 158.667 174.167C158.667 173.813 158.526 173.474 158.276 173.224C158.026 172.974 157.687 172.833 157.333 172.833ZM155.565 160.833L153.939 166.532C153.858 166.811 153.69 167.055 153.458 167.23C153.227 167.405 152.945 167.499 152.655 167.5H143.672L143.332 166.311L141.768 160.833H155.565ZM154 176.833C153.605 176.833 153.218 176.951 152.889 177.17C152.56 177.39 152.304 177.703 152.152 178.068C152.001 178.433 151.961 178.836 152.039 179.224C152.116 179.611 152.306 179.968 152.586 180.248C152.866 180.527 153.222 180.718 153.61 180.795C153.998 180.872 154.4 180.832 154.765 180.681C155.131 180.53 155.443 180.273 155.663 179.944C155.883 179.616 156 179.229 156 178.833C156 178.303 155.789 177.794 155.414 177.419C155.039 177.044 154.531 176.833 154 176.833Z" fill="#CBD5E1"/>
<path d="M223.333 156.833H220.667V155.5C220.667 155.146 220.526 154.807 220.276 154.557C220.026 154.307 219.687 154.167 219.333 154.167C218.98 154.167 218.641 154.307 218.391 154.557C218.141 154.807 218 155.146 218 155.5V156.833H210V155.5C210 155.146 209.86 154.807 209.61 154.557C209.36 154.307 209.02 154.167 208.667 154.167C208.313 154.167 207.974 154.307 207.724 154.557C207.474 154.807 207.333 155.146 207.333 155.5V156.833H204.667C203.606 156.833 202.588 157.255 201.838 158.005C201.088 158.755 200.667 159.772 200.667 160.833V176.833C200.667 177.894 201.088 178.912 201.838 179.662C202.588 180.412 203.606 180.833 204.667 180.833H223.333C224.394 180.833 225.412 180.412 226.162 179.662C226.912 178.912 227.333 177.894 227.333 176.833V160.833C227.333 159.772 226.912 158.755 226.162 158.005C225.412 157.255 224.394 156.833 223.333 156.833ZM224.667 176.833C224.667 177.187 224.526 177.526 224.276 177.776C224.026 178.026 223.687 178.167 223.333 178.167H204.667C204.313 178.167 203.974 178.026 203.724 177.776C203.474 177.526 203.333 177.187 203.333 176.833V167.5H224.667V176.833ZM224.667 164.833H203.333V160.833C203.333 160.48 203.474 160.141 203.724 159.891C203.974 159.64 204.313 159.5 204.667 159.5H207.333V160.833C207.333 161.187 207.474 161.526 207.724 161.776C207.974 162.026 208.313 162.167 208.667 162.167C209.02 162.167 209.36 162.026 209.61 161.776C209.86 161.526 210 161.187 210 160.833V159.5H218V160.833C218 161.187 218.141 161.526 218.391 161.776C218.641 162.026 218.98 162.167 219.333 162.167C219.687 162.167 220.026 162.026 220.276 161.776C220.526 161.526 220.667 161.187 220.667 160.833V159.5H223.333C223.687 159.5 224.026 159.64 224.276 159.891C224.526 160.141 224.667 160.48 224.667 160.833V164.833Z" fill="#CBD5E1"/>
<path d="M290.493 162.967C290.394 162.738 290.233 162.542 290.028 162.401C289.823 162.26 289.582 162.178 289.333 162.167H283.227L284.92 155.847C284.974 155.649 284.982 155.441 284.942 155.24C284.903 155.039 284.818 154.85 284.693 154.687C284.569 154.525 284.41 154.395 284.227 154.304C284.044 154.214 283.844 154.167 283.64 154.167H274.307C274.006 154.156 273.71 154.248 273.468 154.427C273.226 154.607 273.051 154.862 272.973 155.153L269.4 168.487C269.346 168.684 269.338 168.892 269.378 169.093C269.417 169.294 269.502 169.484 269.627 169.647C269.752 169.81 269.914 169.942 270.099 170.032C270.284 170.122 270.487 170.168 270.693 170.167H275.853L273.44 179.153C273.361 179.443 273.382 179.751 273.5 180.027C273.618 180.304 273.825 180.532 274.089 180.676C274.353 180.819 274.658 180.869 274.954 180.818C275.25 180.767 275.52 180.617 275.72 180.393L290.253 164.393C290.426 164.204 290.541 163.968 290.584 163.715C290.626 163.462 290.595 163.202 290.493 162.967ZM277.44 174.54L278.867 169.207C278.921 169.009 278.928 168.801 278.889 168.6C278.85 168.399 278.764 168.21 278.64 168.047C278.516 167.885 278.356 167.755 278.174 167.664C277.991 167.574 277.79 167.527 277.587 167.527H272.467L275.32 156.833H281.893L280.2 163.153C280.146 163.355 280.139 163.566 280.181 163.77C280.224 163.975 280.313 164.166 280.443 164.33C280.573 164.493 280.739 164.624 280.928 164.711C281.118 164.799 281.325 164.841 281.533 164.833H286.293L277.44 174.54Z" fill="#CBD5E1"/>
<path d="M349.627 163.22L343.907 168.953L341.707 166.753C341.587 166.614 341.44 166.5 341.275 166.42C341.109 166.34 340.929 166.295 340.745 166.288C340.562 166.281 340.379 166.312 340.208 166.379C340.037 166.446 339.881 166.548 339.751 166.678C339.621 166.808 339.52 166.963 339.453 167.134C339.386 167.305 339.355 167.488 339.362 167.672C339.369 167.856 339.414 168.036 339.494 168.201C339.574 168.367 339.687 168.514 339.827 168.633L342.96 171.78C343.085 171.904 343.232 172.001 343.395 172.068C343.557 172.134 343.731 172.168 343.907 172.167C344.257 172.165 344.592 172.026 344.84 171.78L351.507 165.113C351.632 164.989 351.731 164.842 351.799 164.679C351.866 164.517 351.901 164.343 351.901 164.167C351.901 163.991 351.866 163.816 351.799 163.654C351.731 163.491 351.632 163.344 351.507 163.22C351.257 162.972 350.919 162.832 350.567 162.832C350.215 162.832 349.877 162.972 349.627 163.22ZM346 154.167C343.363 154.167 340.785 154.949 338.592 156.414C336.4 157.879 334.691 159.961 333.682 162.398C332.673 164.834 332.408 167.515 332.923 170.101C333.437 172.688 334.707 175.063 336.572 176.928C338.437 178.793 340.812 180.063 343.399 180.577C345.985 181.092 348.666 180.828 351.103 179.818C353.539 178.809 355.621 177.1 357.086 174.908C358.551 172.715 359.333 170.137 359.333 167.5C359.333 165.749 358.989 164.015 358.318 162.398C357.648 160.78 356.666 159.31 355.428 158.072C354.19 156.834 352.72 155.852 351.103 155.182C349.485 154.512 347.751 154.167 346 154.167ZM346 178.167C343.89 178.167 341.828 177.541 340.074 176.369C338.32 175.197 336.953 173.531 336.145 171.582C335.338 169.633 335.127 167.488 335.538 165.419C335.95 163.35 336.966 161.449 338.458 159.958C339.949 158.466 341.85 157.45 343.919 157.038C345.988 156.627 348.133 156.838 350.082 157.645C352.031 158.453 353.697 159.82 354.869 161.574C356.041 163.328 356.667 165.39 356.667 167.5C356.667 170.329 355.543 173.042 353.543 175.042C351.542 177.043 348.829 178.167 346 178.167Z" fill="#CBD5E1"/>
<path opacity="0.2" d="M11.5125 97.9875C11.9545 99.2439 12.6699 100.387 13.6071 101.333C14.5442 102.279 15.6798 103.006 16.9318 103.461C18.1838 103.915 19.5211 104.086 20.8471 103.961C22.1732 103.836 23.4549 103.418 24.6 102.738L27.7 103.625C27.8282 103.661 27.9637 103.662 28.0926 103.629C28.2215 103.595 28.3391 103.528 28.4333 103.433C28.5275 103.339 28.5949 103.222 28.6286 103.093C28.6623 102.964 28.661 102.828 28.625 102.7L27.7374 99.6C28.529 98.2691 28.9638 96.7564 28.9997 95.2082C29.0357 93.6601 28.6715 92.1289 27.9425 90.7626C27.2135 89.3964 26.1444 88.2413 24.8384 87.4092C23.5324 86.5771 22.0338 86.096 20.4875 86.0125C20.8303 86.9711 21.0037 87.982 21 89C21 91.387 20.0517 93.6761 18.3639 95.364C16.6761 97.0518 14.3869 98 12 98L11.5125 97.9875Z" fill="#CBD5E1"/>
<path d="M28.8124 99.725C29.5805 98.2914 29.9873 96.692 29.9975 95.0656C30.0078 93.4392 29.6212 91.8348 28.8713 90.3916C28.1213 88.9484 27.0307 87.7098 25.6939 86.7834C24.3571 85.8569 22.8145 85.2705 21.1999 85.075C20.6682 83.8351 19.8912 82.7155 18.9155 81.7837C17.9399 80.852 16.7858 80.1273 15.5227 79.6532C14.2596 79.1792 12.9136 78.9657 11.5658 79.0255C10.218 79.0853 8.89625 79.4172 7.6801 80.0012C6.46394 80.5852 5.37853 81.4093 4.48922 82.4238C3.5999 83.4383 2.92506 84.6223 2.50532 85.9044C2.08559 87.1866 1.92963 88.5404 2.04685 89.8845C2.16406 91.2285 2.55203 92.5349 3.18738 93.725L2.41238 96.425C2.32256 96.7254 2.31566 97.0444 2.39243 97.3484C2.46919 97.6523 2.62676 97.9298 2.84843 98.1515C3.0701 98.3731 3.34761 98.5307 3.65155 98.6075C3.95549 98.6842 4.27454 98.6773 4.57488 98.5875L7.27488 97.8125C8.37144 98.397 9.56645 98.7742 10.7999 98.925C11.3447 100.202 12.1494 101.351 13.1627 102.3C14.1761 103.249 15.3759 103.976 16.6858 104.436C17.9957 104.896 19.3869 105.078 20.771 104.97C22.155 104.863 23.5016 104.469 24.7249 103.813L27.4249 104.588C27.7252 104.677 28.0443 104.684 28.3482 104.607C28.6522 104.531 28.9297 104.373 29.1513 104.151C29.373 103.93 29.5306 103.652 29.6073 103.348C29.6841 103.044 29.6772 102.725 29.5874 102.425L28.8124 99.725ZM7.41238 95.7375C7.31939 95.7368 7.22679 95.7495 7.13738 95.775L4.46238 96.55L5.22488 93.8625C5.26181 93.7333 5.27199 93.598 5.2548 93.4647C5.2376 93.3315 5.1934 93.2031 5.12488 93.0875C4.22282 91.5699 3.84813 89.7964 4.0592 88.0436C4.27027 86.2908 5.05524 84.657 6.29178 83.3969C7.52833 82.1367 9.14699 81.321 10.8955 81.0769C12.6441 80.8327 14.4243 81.1739 15.9587 82.0471C17.4931 82.9203 18.6956 84.2766 19.3787 85.9046C20.0618 87.5326 20.1872 89.3408 19.7354 91.0475C19.2835 92.7542 18.2798 94.2635 16.8806 95.3402C15.4814 96.4168 13.7654 97.0005 11.9999 97C10.5628 96.9983 9.15207 96.6144 7.91238 95.8875C7.76419 95.7892 7.59021 95.737 7.41238 95.7375ZM26.8874 99.0875C26.8146 99.2013 26.767 99.3293 26.7476 99.4629C26.7282 99.5965 26.7375 99.7328 26.7749 99.8625L27.5499 102.55L24.8749 101.775C24.7432 101.737 24.6048 101.727 24.469 101.746C24.3331 101.766 24.203 101.814 24.0874 101.888C23.171 102.428 22.1563 102.781 21.1022 102.926C20.0482 103.071 18.9758 103.005 17.9475 102.732C16.9193 102.458 15.9556 101.983 15.1127 101.334C14.2697 100.685 13.5643 99.8744 13.0374 98.95C15.4951 98.6881 17.7694 97.5274 19.4236 95.691C21.0778 93.8545 21.9953 91.4717 21.9999 89C21.9965 88.4007 21.9422 87.8027 21.8374 87.2125C23.5917 87.6265 25.1548 88.6208 26.2733 90.0343C27.3918 91.4478 28.0002 93.1975 27.9999 95C27.9982 96.4371 27.6142 97.8478 26.8874 99.0875Z" fill="#CBD5E1"/>
<path opacity="0.2" d="M77.7624 99.075C76.3374 103.312 70.6874 103.312 70.6874 103.312C70.6874 103.312 70.6874 97.6625 74.9249 96.2375L77.7624 99.075ZM89.0749 90.5875V98.6625C89.0712 98.9263 88.9633 99.1779 88.7749 99.3625L84.7374 103.412C84.6093 103.54 84.4489 103.631 84.2733 103.675C84.0976 103.719 83.9133 103.714 83.7401 103.662C83.5669 103.609 83.4112 103.511 83.2896 103.376C83.1681 103.242 83.0852 103.078 83.0499 102.9L81.9999 97.6625L89.0749 90.5875ZM83.4124 84.925H75.3374C75.0736 84.9287 74.822 85.0366 74.6374 85.225L70.5874 89.2625C70.4595 89.3906 70.3687 89.551 70.3248 89.7266C70.2809 89.9023 70.2855 90.0866 70.3381 90.2598C70.3907 90.433 70.4893 90.5887 70.6235 90.7103C70.7577 90.8318 70.9223 90.9147 71.0999 90.95L76.3374 92L83.4124 84.925Z" fill="#CBD5E1"/>
<path d="M78.075 98.125C77.9511 98.082 77.8199 98.064 77.689 98.0722C77.5582 98.0804 77.4302 98.1146 77.3127 98.1728C77.1952 98.231 77.0904 98.312 77.0045 98.4111C76.9187 98.5102 76.8534 98.6254 76.8125 98.75C75.9875 101.213 73.325 101.975 71.7875 102.213C72.025 100.675 72.7875 98.0125 75.25 97.1875C75.3848 97.1549 75.5114 97.0945 75.6216 97.0103C75.7319 96.9261 75.8234 96.8198 75.8904 96.6983C75.9573 96.5768 75.9983 96.4427 76.0106 96.3045C76.0229 96.1663 76.0064 96.0271 75.962 95.8956C75.9176 95.7642 75.8463 95.6434 75.7527 95.541C75.6592 95.4386 75.5453 95.3568 75.4184 95.3008C75.2914 95.2448 75.1542 95.2158 75.0155 95.2156C74.8768 95.2155 74.7395 95.2442 74.6125 95.3C72.5625 95.975 71.0625 97.6 70.2625 99.9875C69.908 101.061 69.7143 102.182 69.6875 103.313C69.6875 103.578 69.7929 103.832 69.9804 104.02C70.1679 104.207 70.4223 104.313 70.6875 104.313C71.8181 104.286 72.9386 104.092 74.0125 103.738C76.4 102.938 78.025 101.438 78.7 99.3875C78.7431 99.2637 78.761 99.1325 78.7528 99.0016C78.7446 98.8707 78.7104 98.7428 78.6522 98.6252C78.594 98.5077 78.513 98.4029 78.4139 98.3171C78.3148 98.2312 78.1996 98.1659 78.075 98.125Z" fill="#CBD5E1"/>
<path d="M94.45 81.225C94.3914 80.8014 94.1961 80.4086 93.8937 80.1063C93.5914 79.8039 93.1985 79.6086 92.775 79.55C91.3625 79.3375 87.7 79.2375 84.125 82.8125L83 83.925H75.3375C74.808 83.9286 74.3009 84.1395 73.925 84.5125L69.8875 88.5625C69.6315 88.8171 69.4497 89.1367 69.3616 89.4868C69.2735 89.837 69.2824 90.2045 69.3875 90.55C69.4917 90.8979 69.6888 91.2109 69.9574 91.4554C70.2261 91.6998 70.5563 91.8665 70.9125 91.9375L75.85 92.925L81.075 98.15L82.0625 103.087C82.1335 103.444 82.3002 103.774 82.5446 104.043C82.789 104.311 83.102 104.508 83.45 104.612C83.6358 104.672 83.8299 104.702 84.025 104.7C84.2879 104.702 84.5485 104.651 84.7913 104.551C85.034 104.45 85.2538 104.301 85.4375 104.112L89.4875 100.075C89.8605 99.6991 90.0714 99.192 90.075 98.6625V91L91.1875 89.875C94.7625 86.3 94.6625 82.6375 94.45 81.225ZM75.3375 85.925H81L76.0125 90.9125L71.3 89.975L75.3375 85.925ZM85.5375 84.225C86.5125 83.25 89.1375 81.025 92.475 81.525C92.975 84.8625 90.75 87.4875 89.775 88.4625L82 96.2375L77.7625 92L85.5375 84.225ZM88.075 98.6625L84.025 102.7L83.0875 97.9875L88.075 93V98.6625Z" fill="#CBD5E1"/>
<path opacity="0.2" d="M159 84L157.475 92.3625C157.393 92.8227 157.151 93.2391 156.792 93.5386C156.433 93.838 155.98 94.0014 155.513 94H139.812L138 84H159Z" fill="#CBD5E1"/>
<path d="M158.462 92.5375L159.987 84.175C160.014 84.0314 160.008 83.8836 159.969 83.7428C159.93 83.602 159.859 83.472 159.763 83.3625C159.67 83.2495 159.554 83.1583 159.422 83.0957C159.29 83.033 159.146 83.0003 159 83H138.838L138.225 79.6375C138.14 79.1784 137.898 78.7634 137.539 78.4644C137.181 78.1653 136.729 78.001 136.262 78H134C133.735 78 133.48 78.1054 133.293 78.2929C133.105 78.4804 133 78.7348 133 79C133 79.2652 133.105 79.5196 133.293 79.7071C133.48 79.8946 133.735 80 134 80H136.262L139.688 98.875C139.199 99.3051 138.84 99.8629 138.652 100.486C138.463 101.108 138.451 101.771 138.618 102.4C138.785 103.029 139.125 103.599 139.598 104.046C140.071 104.493 140.659 104.799 141.296 104.93C141.934 105.061 142.595 105.011 143.206 104.787C143.817 104.563 144.353 104.173 144.755 103.661C145.157 103.149 145.407 102.535 145.479 101.889C145.551 101.242 145.442 100.588 145.163 100H151.837C151.512 100.685 151.419 101.457 151.571 102.2C151.722 102.943 152.111 103.617 152.679 104.12C153.247 104.623 153.962 104.928 154.718 104.989C155.474 105.05 156.23 104.863 156.871 104.458C157.511 104.053 158.003 103.45 158.272 102.741C158.541 102.032 158.573 101.255 158.362 100.526C158.151 99.7978 157.709 99.1576 157.102 98.702C156.496 98.2464 155.758 98 155 98H141.562L141.012 95H155.513C156.215 94.9997 156.894 94.753 157.434 94.3031C157.973 93.8531 158.337 93.2283 158.462 92.5375ZM143.5 101.5C143.5 101.797 143.412 102.087 143.247 102.333C143.082 102.58 142.848 102.772 142.574 102.886C142.3 102.999 141.998 103.029 141.707 102.971C141.416 102.913 141.149 102.77 140.939 102.561C140.73 102.351 140.587 102.084 140.529 101.793C140.471 101.502 140.501 101.2 140.614 100.926C140.728 100.652 140.92 100.418 141.167 100.253C141.413 100.088 141.703 100 142 100C142.398 100 142.779 100.158 143.061 100.439C143.342 100.721 143.5 101.102 143.5 101.5ZM156.5 101.5C156.5 101.797 156.412 102.087 156.247 102.333C156.082 102.58 155.848 102.772 155.574 102.886C155.3 102.999 154.998 103.029 154.707 102.971C154.416 102.913 154.149 102.77 153.939 102.561C153.73 102.351 153.587 102.084 153.529 101.793C153.471 101.502 153.501 101.2 153.614 100.926C153.728 100.652 153.92 100.418 154.167 100.253C154.413 100.088 154.703 100 155 100C155.398 100 155.779 100.158 156.061 100.439C156.342 100.721 156.5 101.102 156.5 101.5ZM139.2 85H157.8L156.5 92.175C156.459 92.4067 156.337 92.6165 156.157 92.7674C155.976 92.9183 155.748 93.0007 155.513 93H140.65L139.2 85Z" fill="#CBD5E1"/>
<path opacity="0.2" d="M203 87H225V82C225 81.7348 224.895 81.4804 224.707 81.2929C224.52 81.1054 224.265 81 224 81H204C203.735 81 203.48 81.1054 203.293 81.2929C203.105 81.4804 203 81.7348 203 82V87Z" fill="#CBD5E1"/>
<path d="M224 80H221V79C221 78.7348 220.895 78.4804 220.707 78.2929C220.52 78.1054 220.265 78 220 78C219.735 78 219.48 78.1054 219.293 78.2929C219.105 78.4804 219 78.7348 219 79V80H209V79C209 78.7348 208.895 78.4804 208.707 78.2929C208.52 78.1054 208.265 78 208 78C207.735 78 207.48 78.1054 207.293 78.2929C207.105 78.4804 207 78.7348 207 79V80H204C203.47 80 202.961 80.2107 202.586 80.5858C202.211 80.9609 202 81.4696 202 82V102C202 102.53 202.211 103.039 202.586 103.414C202.961 103.789 203.47 104 204 104H224C224.53 104 225.039 103.789 225.414 103.414C225.789 103.039 226 102.53 226 102V82C226 81.4696 225.789 80.9609 225.414 80.5858C225.039 80.2107 224.53 80 224 80ZM207 82V83C207 83.2652 207.105 83.5196 207.293 83.7071C207.48 83.8946 207.735 84 208 84C208.265 84 208.52 83.8946 208.707 83.7071C208.895 83.5196 209 83.2652 209 83V82H219V83C219 83.2652 219.105 83.5196 219.293 83.7071C219.48 83.8946 219.735 84 220 84C220.265 84 220.52 83.8946 220.707 83.7071C220.895 83.5196 221 83.2652 221 83V82H224V86H204V82H207ZM224 102H204V88H224V102Z" fill="#CBD5E1"/>
<path opacity="0.2" d="M276 106L278 96L270 93L284 78L282 88L290 91L276 106Z" fill="#CBD5E1"/>
<path d="M276 107C275.839 106.998 275.681 106.96 275.538 106.887C275.347 106.785 275.195 106.624 275.102 106.428C275.01 106.232 274.983 106.012 275.025 105.8L276.85 96.6375L269.65 93.9375C269.496 93.8778 269.359 93.7819 269.25 93.6578C269.141 93.5338 269.064 93.3853 269.025 93.225C268.987 93.0641 268.99 92.8963 269.034 92.7368C269.077 92.5774 269.16 92.4315 269.275 92.3125L283.275 77.3125C283.424 77.1593 283.619 77.0582 283.83 77.0238C284.041 76.9895 284.258 77.0238 284.448 77.1217C284.639 77.2197 284.792 77.376 284.887 77.5679C284.982 77.7597 285.013 77.9769 284.975 78.1875L283.15 87.3625L290.35 90.0625C290.505 90.1186 290.643 90.2124 290.752 90.3355C290.861 90.4585 290.938 90.6068 290.975 90.767C291.012 90.9272 291.009 91.0941 290.965 91.2527C290.922 91.4113 290.839 91.5564 290.725 91.675L276.725 106.675C276.634 106.778 276.523 106.86 276.398 106.916C276.273 106.972 276.137 107.001 276 107ZM271.75 92.5875L278.35 95.0625C278.571 95.1443 278.756 95.3028 278.871 95.5092C278.986 95.7156 279.023 95.9562 278.975 96.1875L277.675 102.737L288.25 91.4125L281.65 88.9375C281.426 88.8554 281.239 88.6949 281.124 88.4858C281.01 88.2767 280.974 88.0331 281.025 87.8L282.325 81.25L271.75 92.5875Z" fill="#CBD5E1"/>
<path opacity="0.2" d="M346 104C352.627 104 358 98.6274 358 92C358 85.3726 352.627 80 346 80C339.373 80 334 85.3726 334 92C334 98.6274 339.373 104 346 104Z" fill="#CBD5E1"/>
<path d="M350.813 88.275L344.163 94.6125L341.188 91.775C341.094 91.6782 340.981 91.6015 340.857 91.5493C340.733 91.4972 340.599 91.4707 340.464 91.4715C340.329 91.4723 340.196 91.5003 340.072 91.5539C339.949 91.6075 339.837 91.6855 339.744 91.7834C339.652 91.8812 339.58 91.9968 339.533 92.1231C339.486 92.2495 339.465 92.384 339.471 92.5187C339.477 92.6534 339.511 92.7854 339.57 92.9067C339.628 93.0281 339.711 93.1364 339.813 93.225L343.475 96.725C343.66 96.9023 343.906 97.001 344.163 97C344.423 97.0016 344.673 96.9031 344.863 96.725L352.188 89.725C352.367 89.5398 352.468 89.2923 352.47 89.0343C352.471 88.7763 352.373 88.5277 352.196 88.3404C352.018 88.1532 351.775 88.0418 351.517 88.0296C351.259 88.0174 351.007 88.1053 350.813 88.275Z" fill="#CBD5E1"/>
<path d="M346 79C343.429 79 340.915 79.7624 338.778 81.1909C336.64 82.6194 334.974 84.6497 333.99 87.0251C333.006 89.4006 332.748 92.0144 333.25 94.5362C333.751 97.0579 334.99 99.3743 336.808 101.192C338.626 103.01 340.942 104.249 343.464 104.75C345.986 105.252 348.599 104.994 350.975 104.01C353.35 103.026 355.381 101.36 356.809 99.2224C358.238 97.0846 359 94.5712 359 92C358.997 88.5532 357.626 85.2485 355.189 82.8113C352.751 80.374 349.447 79.0033 346 79ZM346 103C343.824 103 341.698 102.355 339.889 101.146C338.08 99.9375 336.67 98.2195 335.837 96.2095C335.005 94.1995 334.787 91.9878 335.211 89.854C335.636 87.7202 336.683 85.7602 338.222 84.2218C339.76 82.6834 341.72 81.6358 343.854 81.2114C345.988 80.7869 348.2 81.0048 350.21 81.8373C352.22 82.6699 353.937 84.0798 355.146 85.8887C356.355 87.6977 357 89.8244 357 92C356.997 94.9164 355.837 97.7123 353.775 99.7745C351.712 101.837 348.916 102.997 346 103Z" fill="#CBD5E1"/>
<path d="M27 11.848C28.1787 12.2267 29 13.352 29 14.644V20.3587C29 21.8733 27.8707 23.1587 26.36 23.2827C25.9067 23.3187 25.4533 23.352 25 23.3787V27.5L21 23.5C19.2111 23.5002 17.423 23.4277 15.64 23.2827C15.2551 23.2516 14.8807 23.1417 14.54 22.96M27 11.848C26.794 11.7817 26.581 11.7392 26.3653 11.7213C22.7946 11.4249 19.2054 11.4249 15.6347 11.7213C14.1267 11.8467 13 13.1307 13 14.644V20.3587C13 21.4747 13.6133 22.4653 14.54 22.96M27 11.848V9.34934C27 7.188 25.464 5.31467 23.32 5.036C20.5611 4.67839 17.782 4.49935 15 4.5C12.18 4.5 9.40267 4.68267 6.68 5.036C4.536 5.31467 3 7.188 3 9.34934V17.6507C3 19.812 4.536 21.6853 6.68 21.964C7.44933 22.064 8.22267 22.1507 9 22.2227V28.5L14.54 22.96" stroke="#CBD5E1" stroke-width="2" stroke-linecap="round" stroke-linejoin="round"/>
<path d="M86.7867 19.66C87.0643 20.8348 87.0725 22.0571 86.8106 23.2355C86.5488 24.4139 86.0236 25.5177 85.2745 26.4643C84.5255 27.4109 83.5719 28.1757 82.4853 28.7015C81.3986 29.2272 80.2071 29.5002 79 29.5V23.1M86.7867 19.66C89.3332 17.805 91.4048 15.374 92.8322 12.5654C94.2597 9.75689 95.0025 6.65049 95 3.50001C91.8497 3.49773 88.7436 4.24065 85.9353 5.66809C83.127 7.09553 80.6962 9.16701 78.8413 11.7133M86.7867 19.66C84.4692 21.355 81.8138 22.5286 79 23.1M79 23.1C78.8621 23.1281 78.7238 23.1547 78.5853 23.18C77.3757 22.2208 76.2805 21.1256 75.3213 19.916C75.3465 19.7771 75.3719 19.6384 75.4 19.5M78.8413 11.7133C77.6665 11.4355 76.444 11.4271 75.2654 11.6889C74.0869 11.9506 72.9829 12.4757 72.0361 13.2248C71.0893 13.9739 70.3244 14.9276 69.7986 16.0143C69.2728 17.1011 68.9998 18.2927 69 19.5H75.4M78.8413 11.7133C77.1465 14.0304 75.9717 16.6867 75.4 19.5M72.4147 22.6867C71.5376 23.3389 70.8556 24.2186 70.4427 25.2307C70.0298 26.2427 69.9016 27.3484 70.072 28.428C71.1518 28.5983 72.2576 28.4699 73.2696 28.0567C74.2816 27.6435 75.1613 26.9613 75.8133 26.084M88 12.5C88 13.0304 87.7893 13.5391 87.4142 13.9142C87.0391 14.2893 86.5304 14.5 86 14.5C85.4696 14.5 84.9609 14.2893 84.5858 13.9142C84.2107 13.5391 84 13.0304 84 12.5C84 11.9696 84.2107 11.4609 84.5858 11.0858C84.9609 10.7107 85.4696 10.5 86 10.5C86.5304 10.5 87.0391 10.7107 87.4142 11.0858C87.7893 11.4609 88 11.9696 88 12.5Z" stroke="#CBD5E1" stroke-width="2" stroke-linecap="round" stroke-linejoin="round"/>
<path d="M135 4.5H136.848C137.528 4.5 138.121 4.95733 138.297 5.61333L138.808 7.52933M138.808 7.52933C146.236 7.32118 153.656 8.14687 160.856 9.98267C159.757 13.2547 158.452 16.4333 156.957 19.5H142M138.808 7.52933L142 19.5M142 19.5C140.939 19.5 139.922 19.9214 139.172 20.6716C138.421 21.4217 138 22.4391 138 23.5H159M140 27.5C140 27.7652 139.895 28.0196 139.707 28.2071C139.52 28.3946 139.265 28.5 139 28.5C138.735 28.5 138.48 28.3946 138.293 28.2071C138.105 28.0196 138 27.7652 138 27.5C138 27.2348 138.105 26.9804 138.293 26.7929C138.48 26.6054 138.735 26.5 139 26.5C139.265 26.5 139.52 26.6054 139.707 26.7929C139.895 26.9804 140 27.2348 140 27.5ZM157 27.5C157 27.7652 156.895 28.0196 156.707 28.2071C156.52 28.3946 156.265 28.5 156 28.5C155.735 28.5 155.48 28.3946 155.293 28.2071C155.105 28.0196 155 27.7652 155 27.5C155 27.2348 155.105 26.9804 155.293 26.7929C155.48 26.6054 155.735 26.5 156 26.5C156.265 26.5 156.52 26.6054 156.707 26.7929C156.895 26.9804 157 27.2348 157 27.5Z" stroke="#CBD5E1" stroke-width="2" stroke-linecap="round" stroke-linejoin="round"/>
<path d="M207 4.5V7.5M221 4.5V7.5M202 25.5V10.5C202 9.70435 202.316 8.94129 202.879 8.37868C203.441 7.81607 204.204 7.5 205 7.5H223C223.796 7.5 224.559 7.81607 225.121 8.37868C225.684 8.94129 226 9.70435 226 10.5V25.5M202 25.5C202 26.2957 202.316 27.0587 202.879 27.6213C203.441 28.1839 204.204 28.5 205 28.5H223C223.796 28.5 224.559 28.1839 225.121 27.6213C225.684 27.0587 226 26.2957 226 25.5M202 25.5V15.5C202 14.7044 202.316 13.9413 202.879 13.3787C203.441 12.8161 204.204 12.5 205 12.5H223C223.796 12.5 224.559 12.8161 225.121 13.3787C225.684 13.9413 226 14.7044 226 15.5V25.5" stroke="#CBD5E1" stroke-width="2" stroke-linecap="round" stroke-linejoin="round"/>
<path d="M269 18.5L283 3.5L280 14.5H291L277 29.5L280 18.5H269Z" stroke="#CBD5E1" stroke-width="2" stroke-linecap="round" stroke-linejoin="round"/>
<path d="M342 17.5L345 20.5L350 13.5M358 16.5C358 18.0759 357.69 19.6363 357.087 21.0922C356.483 22.5481 355.6 23.871 354.485 24.9853C353.371 26.0996 352.048 26.9835 350.592 27.5866C349.136 28.1896 347.576 28.5 346 28.5C344.424 28.5 342.864 28.1896 341.408 27.5866C339.952 26.9835 338.629 26.0996 337.515 24.9853C336.4 23.871 335.517 22.5481 334.913 21.0922C334.31 19.6363 334 18.0759 334 16.5C334 13.3174 335.264 10.2652 337.515 8.01472C339.765 5.76428 342.817 4.5 346 4.5C349.183 4.5 352.235 5.76428 354.485 8.01472C356.736 10.2652 358 13.3174 358 16.5Z" stroke="#CBD5E1" stroke-width="2" stroke-linecap="round" stroke-linejoin="round"/>
<rect x="128" y="73.5" width="105" height="36" rx="6" fill="white"/>
<path d="M138.4 96.5V86.804L136.496 87.268V86.324L138.848 85.3H139.76V96.5H138.4ZM146.457 96.692C145.476 96.692 144.628 96.452 143.913 95.972C143.209 95.4813 142.665 94.804 142.281 93.94C141.897 93.0653 141.705 92.052 141.705 90.9C141.705 89.748 141.897 88.74 142.281 87.876C142.665 87.0013 143.209 86.324 143.913 85.844C144.617 85.3533 145.465 85.108 146.457 85.108C147.438 85.108 148.276 85.3533 148.969 85.844C149.673 86.324 150.212 87.0013 150.585 87.876C150.969 88.74 151.161 89.748 151.161 90.9C151.161 92.052 150.969 93.0653 150.585 93.94C150.212 94.804 149.673 95.4813 148.969 95.972C148.276 96.452 147.438 96.692 146.457 96.692ZM146.441 95.508C147.092 95.508 147.668 95.3267 148.169 94.964C148.67 94.5907 149.065 94.0627 149.353 93.38C149.641 92.6867 149.785 91.86 149.785 90.9C149.785 89.94 149.641 89.1187 149.353 88.436C149.065 87.7427 148.67 87.2147 148.169 86.852C147.668 86.4893 147.092 86.308 146.441 86.308C145.801 86.308 145.225 86.4893 144.713 86.852C144.212 87.2147 143.812 87.7427 143.513 88.436C143.225 89.1187 143.081 89.94 143.081 90.9C143.081 91.86 143.225 92.6867 143.513 93.38C143.812 94.0627 144.212 94.5907 144.713 94.964C145.225 95.3267 145.801 95.508 146.441 95.508ZM157.426 96.692C156.445 96.692 155.597 96.452 154.882 95.972C154.178 95.4813 153.634 94.804 153.25 93.94C152.866 93.0653 152.674 92.052 152.674 90.9C152.674 89.748 152.866 88.74 153.25 87.876C153.634 87.0013 154.178 86.324 154.882 85.844C155.586 85.3533 156.434 85.108 157.426 85.108C158.407 85.108 159.245 85.3533 159.938 85.844C160.642 86.324 161.181 87.0013 161.554 87.876C161.938 88.74 162.13 89.748 162.13 90.9C162.13 92.052 161.938 93.0653 161.554 93.94C161.181 94.804 160.642 95.4813 159.938 95.972C159.245 96.452 158.407 96.692 157.426 96.692ZM157.41 95.508C158.061 95.508 158.637 95.3267 159.138 94.964C159.639 94.5907 160.034 94.0627 160.322 93.38C160.61 92.6867 160.754 91.86 160.754 90.9C160.754 89.94 160.61 89.1187 160.322 88.436C160.034 87.7427 159.639 87.2147 159.138 86.852C158.637 86.4893 158.061 86.308 157.41 86.308C156.77 86.308 156.194 86.4893 155.682 86.852C155.181 87.2147 154.781 87.7427 154.482 88.436C154.194 89.1187 154.05 89.94 154.05 90.9C154.05 91.86 154.194 92.6867 154.482 93.38C154.781 94.0627 155.181 94.5907 155.682 94.964C156.194 95.3267 156.77 95.508 157.41 95.508ZM164.091 96.5V85.3H165.435V90.372L170.107 85.3H171.803L167.643 89.764L171.867 96.5H170.235L166.683 90.804L165.435 92.132V96.5H164.091ZM175.23 95.348V88.372H176.43V95.348H175.23ZM172.174 92.42V91.284H179.486V92.42H172.174ZM185.732 96.5V88.468H187.076V96.5H185.732ZM186.404 86.74C186.138 86.74 185.914 86.6547 185.732 86.484C185.562 86.3027 185.476 86.0787 185.476 85.812C185.476 85.5453 185.562 85.332 185.732 85.172C185.914 85.0013 186.138 84.916 186.404 84.916C186.66 84.916 186.879 85.0013 187.06 85.172C187.242 85.332 187.332 85.5453 187.332 85.812C187.332 86.0787 187.242 86.3027 187.06 86.484C186.879 86.6547 186.66 86.74 186.404 86.74ZM193.065 96.692C192.307 96.692 191.625 96.516 191.017 96.164C190.419 95.812 189.945 95.3213 189.593 94.692C189.251 94.0627 189.081 93.3267 189.081 92.484C189.081 91.6413 189.251 90.9053 189.593 90.276C189.945 89.6467 190.419 89.156 191.017 88.804C191.625 88.452 192.307 88.276 193.065 88.276C194.025 88.276 194.825 88.5267 195.465 89.028C196.105 89.5187 196.51 90.18 196.681 91.012H195.305C195.198 90.5107 194.937 90.1213 194.521 89.844C194.105 89.5667 193.614 89.428 193.049 89.428C192.59 89.428 192.163 89.5453 191.769 89.78C191.385 90.004 191.07 90.3453 190.825 90.804C190.579 91.252 190.457 91.812 190.457 92.484C190.457 92.9853 190.526 93.428 190.664 93.812C190.814 94.196 191.006 94.5213 191.241 94.788C191.475 95.044 191.747 95.236 192.057 95.364C192.377 95.492 192.707 95.556 193.049 95.556C193.433 95.556 193.779 95.4973 194.089 95.38C194.398 95.252 194.659 95.0707 194.873 94.836C195.086 94.5907 195.23 94.2973 195.305 93.956H196.681C196.51 94.7773 196.099 95.4387 195.449 95.94C194.809 96.4413 194.014 96.692 193.065 96.692ZM202.173 96.692C201.426 96.692 200.754 96.5213 200.157 96.18C199.56 95.828 199.085 95.3373 198.733 94.708C198.392 94.0787 198.221 93.3373 198.221 92.484C198.221 91.6307 198.397 90.8893 198.749 90.26C199.101 89.6307 199.576 89.1453 200.173 88.804C200.781 88.452 201.458 88.276 202.205 88.276C202.962 88.276 203.64 88.452 204.237 88.804C204.834 89.1453 205.304 89.6307 205.645 90.26C205.986 90.8893 206.157 91.6307 206.157 92.484C206.157 93.3373 205.981 94.0787 205.629 94.708C205.288 95.3373 204.813 95.828 204.205 96.18C203.608 96.5213 202.93 96.692 202.173 96.692ZM202.173 95.54C202.642 95.54 203.074 95.428 203.469 95.204C203.864 94.9693 204.178 94.628 204.413 94.18C204.658 93.7213 204.781 93.156 204.781 92.484C204.781 91.8013 204.664 91.236 204.429 90.788C204.194 90.34 203.88 90.004 203.485 89.78C203.09 89.5453 202.664 89.428 202.205 89.428C201.757 89.428 201.33 89.5453 200.925 89.78C200.53 90.004 200.21 90.34 199.965 90.788C199.72 91.236 199.597 91.8013 199.597 92.484C199.597 93.156 199.72 93.7213 199.965 94.18C200.21 94.628 200.525 94.9693 200.909 95.204C201.304 95.428 201.725 95.54 202.173 95.54ZM208.042 96.5V88.468H209.258L209.338 89.876C209.594 89.3747 209.956 88.9853 210.426 88.708C210.906 88.42 211.45 88.276 212.058 88.276C212.687 88.276 213.231 88.3987 213.69 88.644C214.148 88.8893 214.506 89.268 214.762 89.78C215.018 90.292 215.146 90.9373 215.146 91.716V96.5H213.802V91.86C213.802 91.0493 213.626 90.4413 213.274 90.036C212.922 89.6307 212.415 89.428 211.754 89.428C211.306 89.428 210.9 89.54 210.538 89.764C210.186 89.9773 209.903 90.292 209.69 90.708C209.487 91.124 209.386 91.6307 209.386 92.228V96.5H208.042ZM220.253 96.692C219.603 96.692 219.027 96.5853 218.525 96.372C218.024 96.148 217.624 95.8333 217.325 95.428C217.037 95.0227 216.856 94.548 216.781 94.004H218.157C218.221 94.2813 218.339 94.5427 218.509 94.788C218.68 95.0227 218.909 95.2093 219.197 95.348C219.496 95.4867 219.853 95.556 220.269 95.556C220.653 95.556 220.968 95.5027 221.213 95.396C221.459 95.2787 221.64 95.124 221.757 94.932C221.875 94.74 221.933 94.532 221.933 94.308C221.933 93.988 221.853 93.7427 221.693 93.572C221.544 93.4013 221.32 93.268 221.021 93.172C220.723 93.0653 220.365 92.9747 219.949 92.9C219.597 92.836 219.251 92.7507 218.909 92.644C218.579 92.5373 218.28 92.3987 218.013 92.228C217.747 92.0573 217.533 91.844 217.373 91.588C217.213 91.3213 217.133 91.0067 217.133 90.644C217.133 90.1853 217.251 89.78 217.485 89.428C217.731 89.0653 218.067 88.7827 218.493 88.58C218.931 88.3773 219.448 88.276 220.045 88.276C220.899 88.276 221.592 88.484 222.125 88.9C222.669 89.316 222.984 89.9187 223.069 90.708H221.741C221.699 90.3027 221.528 89.988 221.229 89.764C220.931 89.5293 220.531 89.412 220.029 89.412C219.528 89.412 219.144 89.5133 218.877 89.716C218.621 89.9187 218.493 90.1853 218.493 90.516C218.493 90.7293 218.563 90.916 218.701 91.076C218.851 91.236 219.069 91.3747 219.357 91.492C219.645 91.5987 219.992 91.6947 220.397 91.78C220.92 91.876 221.4 92.004 221.837 92.164C222.275 92.324 222.627 92.5587 222.893 92.868C223.171 93.1773 223.309 93.62 223.309 94.196C223.32 94.6973 223.197 95.1347 222.941 95.508C222.696 95.8813 222.344 96.1747 221.885 96.388C221.427 96.5907 220.883 96.692 220.253 96.692Z" fill="#334155"/>
<rect x="128.5" y="74" width="104" height="35" rx="5.5" stroke="#CBD5E1" stroke-opacity="0.25"/>
<rect x="128.5" y="74" width="104" height="35" rx="5.5" stroke="url(#paint0_linear_963_1393)" stroke-opacity="0.51"/>
<g filter="url(#filter0_f_963_1393)">
<rect x="232" y="57" width="24" height="32" transform="rotate(36 232 57)" fill="url(#paint1_radial_963_1393)"/>
</g>
</g>
<defs>
<filter id="filter0_f_963_1393" x="185.191" y="29" width="94.2256" height="95.9954" filterUnits="userSpaceOnUse" color-interpolation-filters="sRGB">
<feFlood flood-opacity="0" result="BackgroundImageFix"/>
<feBlend mode="normal" in="SourceGraphic" in2="BackgroundImageFix" result="shape"/>
<feGaussianBlur stdDeviation="14" result="effect1_foregroundBlur_963_1393"/>
</filter>
<linearGradient id="paint0_linear_963_1393" x1="230.29" y1="70.5" x2="173.782" y2="90.8116" gradientUnits="userSpaceOnUse">
<stop stop-color="#CBD5E1"/>
<stop offset="1" stop-color="#CBD5E1" stop-opacity="0"/>
</linearGradient>
<radialGradient id="paint1_radial_963_1393" cx="0" cy="0" r="1" gradientUnits="userSpaceOnUse" gradientTransform="translate(244 73) rotate(90) scale(16 12)">
<stop stop-color="#CBD5E1"/>
<stop offset="1" stop-color="#CBD5E1" stop-opacity="0"/>
</radialGradient>
<clipPath id="clip0_963_1393">
<rect width="362" height="184" fill="white"/>
</clipPath>
</defs>
</svg>
