<svg width="329" height="173" viewBox="0 0 329 173" fill="none" xmlns="http://www.w3.org/2000/svg">
<g clip-path="url(#clip0_993_2547)">
<rect x="0.5" y="0.5" width="328" height="172" rx="5.5" fill="url(#paint0_linear_993_2547)" fill-opacity="0.5" stroke="url(#paint1_linear_993_2547)"/>
<g clip-path="url(#clip1_993_2547)">
<rect x="56.7998" y="24" width="215" height="140" rx="4" fill="url(#paint2_linear_993_2547)" fill-opacity="0.21"/>
<g clip-path="url(#clip2_993_2547)">
<path d="M-94.3474 179.245L86.5752 -8.10548M-89.1113 179.154L91.8113 -8.19687M-83.8752 179.063L97.0474 -8.28827M-78.6391 178.971L102.284 -8.37967M-73.4029 178.88L107.52 -8.47106M-68.1668 178.788L112.756 -8.56246M-62.9307 178.697L117.992 -8.65386M-57.6946 178.606L123.228 -8.74525M-52.4585 178.514L128.464 -8.83665M-47.2224 178.423L133.7 -8.92805M-41.9863 178.331L138.936 -9.01944M-36.7501 178.24L144.172 -9.11084M-31.514 178.149L149.409 -9.20224M-26.2779 178.057L154.645 -9.29363M-21.0418 177.966L159.881 -9.38503M-15.8057 177.874L165.117 -9.47643M-10.5696 177.783L170.353 -9.56782M-5.33344 177.692L175.589 -9.65922M-0.0973381 177.6L180.825 -9.75062M5.13878 177.509L186.061 -9.84201M10.3749 177.417L191.297 -9.93341M15.611 177.326L196.534 -10.0248M20.8471 177.235L201.77 -10.1162M26.0832 177.143L207.006 -10.2076M31.3194 177.052L212.242 -10.299M36.5555 176.96L217.478 -10.3904M41.7916 176.869L222.714 -10.4818M47.0277 176.778L227.95 -10.5732M52.2638 176.686L233.186 -10.6646M57.4999 176.595L238.423 -10.756M62.736 176.503L243.659 -10.8474M67.9722 176.412L248.895 -10.9388M73.2083 176.321L254.131 -11.0302M78.4444 176.229L259.367 -11.1216M83.6805 176.138L264.603 -11.213M88.9166 176.046L269.839 -11.3044M94.1527 175.955L275.075 -11.3958M99.3888 175.864L280.311 -11.4872M104.625 175.772L285.548 -11.5786M109.861 175.681L290.784 -11.6699M115.097 175.589L296.02 -11.7613M120.333 175.498L301.256 -11.8527M125.569 175.407L306.492 -11.9441M130.806 175.315L311.728 -12.0355M136.042 175.224L316.964 -12.1269M141.278 175.133L322.2 -12.2183M146.514 175.041L327.436 -12.3097M151.75 174.95L332.673 -12.4011M156.986 174.858L337.909 -12.4925M162.222 174.767L343.145 -12.5839M167.458 174.676L348.381 -12.6753M172.694 174.584L353.617 -12.7667M177.931 174.493L358.853 -12.8581M183.167 174.401L364.089 -12.9495M188.403 174.31L369.325 -13.0409M193.639 174.219L374.562 -13.1323M198.875 174.127L379.798 -13.2237M204.111 174.036L385.034 -13.3151M209.347 173.944L390.27 -13.4065M214.583 173.853L395.506 -13.4979M219.819 173.762L400.742 -13.5893M225.056 173.67L405.978 -13.6807M230.292 173.579L411.214 -13.7721M235.528 173.487L416.45 -13.8635M240.764 173.396L421.687 -13.9549M246 173.305L426.923 -14.0463M251.236 173.213L432.159 -14.1377M256.472 173.122L437.395 -14.2291" stroke="url(#paint3_linear_993_2547)" stroke-opacity="0.4" stroke-width="0.436409"/>
</g>
<rect x="64.9498" y="32.15" width="198.7" height="19.7" rx="1.85" stroke="#475569" stroke-opacity="0.9" stroke-width="0.3" stroke-dasharray="1.37 1.37"/>
<rect x="56.7998" y="60" width="215" height="0.5" fill="#475569" fill-opacity="0.2"/>
<g clip-path="url(#clip3_993_2547)">
<path d="M-94.3474 215.745L86.5752 28.3945M-89.1113 215.654L91.8113 28.3031M-83.8752 215.563L97.0474 28.2117M-78.6391 215.471L102.284 28.1203M-73.4029 215.38L107.52 28.0289M-68.1668 215.288L112.756 27.9375M-62.9307 215.197L117.992 27.8461M-57.6946 215.106L123.228 27.7547M-52.4585 215.014L128.464 27.6634M-47.2224 214.923L133.7 27.572M-41.9863 214.831L138.936 27.4806M-36.7501 214.74L144.172 27.3892M-31.514 214.649L149.409 27.2978M-26.2779 214.557L154.645 27.2064M-21.0418 214.466L159.881 27.115M-15.8057 214.374L165.117 27.0236M-10.5696 214.283L170.353 26.9322M-5.33344 214.192L175.589 26.8408M-0.0973381 214.1L180.825 26.7494M5.13878 214.009L186.061 26.658M10.3749 213.917L191.297 26.5666M15.611 213.826L196.534 26.4752M20.8471 213.735L201.77 26.3838M26.0832 213.643L207.006 26.2924M31.3194 213.552L212.242 26.201M36.5555 213.46L217.478 26.1096M41.7916 213.369L222.714 26.0182M47.0277 213.278L227.95 25.9268M52.2638 213.186L233.186 25.8354M57.4999 213.095L238.423 25.744M62.736 213.003L243.659 25.6526M67.9722 212.912L248.895 25.5612M73.2083 212.821L254.131 25.4698M78.4444 212.729L259.367 25.3784M83.6805 212.638L264.603 25.287M88.9166 212.546L269.839 25.1956M94.1527 212.455L275.075 25.1042M99.3888 212.364L280.311 25.0128M104.625 212.272L285.548 24.9214M109.861 212.181L290.784 24.8301M115.097 212.089L296.02 24.7387M120.333 211.998L301.256 24.6473M125.569 211.907L306.492 24.5559M130.806 211.815L311.728 24.4645M136.042 211.724L316.964 24.3731M141.278 211.633L322.2 24.2817M146.514 211.541L327.436 24.1903M151.75 211.45L332.673 24.0989M156.986 211.358L337.909 24.0075M162.222 211.267L343.145 23.9161M167.458 211.176L348.381 23.8247M172.694 211.084L353.617 23.7333M177.931 210.993L358.853 23.6419M183.167 210.901L364.089 23.5505M188.403 210.81L369.325 23.4591M193.639 210.719L374.562 23.3677M198.875 210.627L379.798 23.2763M204.111 210.536L385.034 23.1849M209.347 210.444L390.27 23.0935M214.583 210.353L395.506 23.0021M219.819 210.262L400.742 22.9107M225.056 210.17L405.978 22.8193M230.292 210.079L411.214 22.7279M235.528 209.987L416.45 22.6365M240.764 209.896L421.687 22.5451M246 209.805L426.923 22.4537M251.236 209.713L432.159 22.3623M256.472 209.622L437.395 22.2709" stroke="url(#paint4_linear_993_2547)" stroke-opacity="0.4" stroke-width="0.436409"/>
</g>
<rect x="64.9498" y="68.65" width="198.7" height="50.7" rx="1.85" stroke="url(#paint5_linear_993_2547)" stroke-opacity="0.9" stroke-width="0.3" stroke-dasharray="1.37 1.37"/>
<rect opacity="0.5" x="56.7998" y="127.5" width="215" height="0.5" fill="#475569" fill-opacity="0.2"/>
<g clip-path="url(#clip4_993_2547)">
<path d="M-94.3474 283.245L86.5752 95.8945M-89.1113 283.154L91.8113 95.8031M-83.8752 283.063L97.0474 95.7117M-78.6391 282.971L102.284 95.6203M-73.4029 282.88L107.52 95.5289M-68.1668 282.788L112.756 95.4375M-62.9307 282.697L117.992 95.3461M-57.6946 282.606L123.228 95.2547M-52.4585 282.514L128.464 95.1634M-47.2224 282.423L133.7 95.072M-41.9863 282.331L138.936 94.9806M-36.7501 282.24L144.172 94.8892M-31.514 282.149L149.409 94.7978M-26.2779 282.057L154.645 94.7064M-21.0418 281.966L159.881 94.615M-15.8057 281.874L165.117 94.5236M-10.5696 281.783L170.353 94.4322M-5.33344 281.692L175.589 94.3408M-0.0973381 281.6L180.825 94.2494M5.13878 281.509L186.061 94.158M10.3749 281.417L191.297 94.0666M15.611 281.326L196.534 93.9752M20.8471 281.235L201.77 93.8838M26.0832 281.143L207.006 93.7924M31.3194 281.052L212.242 93.701M36.5555 280.96L217.478 93.6096M41.7916 280.869L222.714 93.5182M47.0277 280.778L227.95 93.4268M52.2638 280.686L233.186 93.3354M57.4999 280.595L238.423 93.244M62.736 280.503L243.659 93.1526M67.9722 280.412L248.895 93.0612M73.2083 280.321L254.131 92.9698M78.4444 280.229L259.367 92.8784M83.6805 280.138L264.603 92.787M88.9166 280.046L269.839 92.6956M94.1527 279.955L275.075 92.6042M99.3888 279.864L280.311 92.5128M104.625 279.772L285.548 92.4214M109.861 279.681L290.784 92.3301M115.097 279.589L296.02 92.2387M120.333 279.498L301.256 92.1473M125.569 279.407L306.492 92.0559M130.806 279.315L311.728 91.9645M136.042 279.224L316.964 91.8731M141.278 279.133L322.2 91.7817M146.514 279.041L327.436 91.6903M151.75 278.95L332.673 91.5989M156.986 278.858L337.909 91.5075M162.222 278.767L343.145 91.4161M167.458 278.676L348.381 91.3247M172.694 278.584L353.617 91.2333M177.931 278.493L358.853 91.1419M183.167 278.401L364.089 91.0505M188.403 278.31L369.325 90.9591M193.639 278.219L374.562 90.8677M198.875 278.127L379.798 90.7763M204.111 278.036L385.034 90.6849M209.347 277.944L390.27 90.5935M214.583 277.853L395.506 90.5021M219.819 277.762L400.742 90.4107M225.056 277.67L405.978 90.3193M230.292 277.579L411.214 90.2279M235.528 277.487L416.45 90.1365M240.764 277.396L421.687 90.0451M246 277.305L426.923 89.9537M251.236 277.213L432.159 89.8623M256.472 277.122L437.395 89.7709" stroke="url(#paint6_linear_993_2547)" stroke-opacity="0.2" stroke-width="0.436409"/>
</g>
<rect x="64.9498" y="136.15" width="198.7" height="19.7" rx="1.85" stroke="url(#paint7_linear_993_2547)" stroke-opacity="0.4" stroke-width="0.3" stroke-dasharray="1.37 1.37"/>
</g>
<rect x="57.2998" y="24.5" width="214" height="139" rx="3.5" stroke="url(#paint8_linear_993_2547)" stroke-opacity="0.42"/>
</g>
<defs>
<linearGradient id="paint0_linear_993_2547" x1="164.5" y1="0" x2="164.5" y2="78.7086" gradientUnits="userSpaceOnUse">
<stop stop-color="#475569"/>
<stop offset="1" stop-color="#475569" stop-opacity="0"/>
</linearGradient>
<linearGradient id="paint1_linear_993_2547" x1="164.5" y1="-1.02658e-07" x2="164.52" y2="117.577" gradientUnits="userSpaceOnUse">
<stop stop-color="#475569"/>
<stop offset="1" stop-color="#475569" stop-opacity="0"/>
</linearGradient>
<linearGradient id="paint2_linear_993_2547" x1="164.3" y1="24" x2="164.3" y2="164" gradientUnits="userSpaceOnUse">
<stop stop-color="#475569"/>
<stop offset="1" stop-color="#475569" stop-opacity="0"/>
</linearGradient>
<linearGradient id="paint3_linear_993_2547" x1="166.463" y1="23.2012" x2="166.491" y2="86.5041" gradientUnits="userSpaceOnUse">
<stop stop-color="#475569"/>
<stop offset="1" stop-color="#475569" stop-opacity="0"/>
</linearGradient>
<linearGradient id="paint4_linear_993_2547" x1="166.629" y1="90.8018" x2="166.425" y2="130.157" gradientUnits="userSpaceOnUse">
<stop stop-color="#475569"/>
<stop offset="1" stop-color="#475569" stop-opacity="0"/>
</linearGradient>
<linearGradient id="paint5_linear_993_2547" x1="164.3" y1="68.5" x2="164.3" y2="119.5" gradientUnits="userSpaceOnUse">
<stop stop-color="#475569"/>
<stop offset="1" stop-color="#475569" stop-opacity="0.16"/>
</linearGradient>
<linearGradient id="paint6_linear_993_2547" x1="166.463" y1="127.201" x2="166.491" y2="190.504" gradientUnits="userSpaceOnUse">
<stop stop-color="#475569"/>
<stop offset="1" stop-color="#475569" stop-opacity="0"/>
</linearGradient>
<linearGradient id="paint7_linear_993_2547" x1="164.3" y1="136" x2="164" y2="154.5" gradientUnits="userSpaceOnUse">
<stop stop-color="#475569"/>
<stop offset="1" stop-color="#475569" stop-opacity="0"/>
</linearGradient>
<linearGradient id="paint8_linear_993_2547" x1="164.3" y1="24" x2="164.3" y2="164" gradientUnits="userSpaceOnUse">
<stop stop-color="#475569"/>
<stop offset="1" stop-color="#475569" stop-opacity="0"/>
</linearGradient>
<clipPath id="clip0_993_2547">
<rect width="329" height="173" fill="white"/>
</clipPath>
<clipPath id="clip1_993_2547">
<rect x="56.7998" y="24" width="215" height="140" rx="4" fill="white"/>
</clipPath>
<clipPath id="clip2_993_2547">
<rect x="64.7998" y="32" width="199" height="20" rx="2" fill="white"/>
</clipPath>
<clipPath id="clip3_993_2547">
<rect x="64.7998" y="68.5" width="199" height="51" rx="2" fill="white"/>
</clipPath>
<clipPath id="clip4_993_2547">
<rect x="64.7998" y="136" width="199" height="20" rx="2" fill="white"/>
</clipPath>
</defs>
</svg>
