<svg width="330" height="173" viewBox="0 0 330 173" fill="none" xmlns="http://www.w3.org/2000/svg">
<g clip-path="url(#clip0_889_19513)">
<rect x="1" y="0.5" width="327" height="172" rx="5.5" stroke="url(#paint0_linear_889_19513)" stroke-opacity="0.25"/>
<g clip-path="url(#clip1_889_19513)">
<g clip-path="url(#clip2_889_19513)">
<path d="M-93.8474 179.245L87.0752 -8.10548M-88.6113 179.154L92.3113 -8.19687M-83.3752 179.063L97.5474 -8.28827M-78.1391 178.971L102.784 -8.37967M-72.9029 178.88L108.02 -8.47106M-67.6668 178.788L113.256 -8.56246M-62.4307 178.697L118.492 -8.65386M-57.1946 178.606L123.728 -8.74525M-51.9585 178.514L128.964 -8.83665M-46.7224 178.423L134.2 -8.92805M-41.4863 178.331L139.436 -9.01944M-36.2501 178.24L144.672 -9.11084M-31.014 178.149L149.909 -9.20224M-25.7779 178.057L155.145 -9.29363M-20.5418 177.966L160.381 -9.38503M-15.3057 177.874L165.617 -9.47643M-10.0696 177.783L170.853 -9.56782M-4.83344 177.692L176.089 -9.65922M0.402662 177.6L181.325 -9.75062M5.63878 177.509L186.561 -9.84201M10.8749 177.417L191.797 -9.93341M16.111 177.326L197.034 -10.0248M21.3471 177.235L202.27 -10.1162M26.5832 177.143L207.506 -10.2076M31.8194 177.052L212.742 -10.299M37.0555 176.96L217.978 -10.3904M42.2916 176.869L223.214 -10.4818M47.5277 176.778L228.45 -10.5732M52.7638 176.686L233.686 -10.6646M57.9999 176.595L238.923 -10.756M63.236 176.503L244.159 -10.8474M68.4722 176.412L249.395 -10.9388M73.7083 176.321L254.631 -11.0302M78.9444 176.229L259.867 -11.1216M84.1805 176.138L265.103 -11.213M89.4166 176.046L270.339 -11.3044M94.6527 175.955L275.575 -11.3958M99.8888 175.864L280.811 -11.4872M105.125 175.772L286.048 -11.5786M110.361 175.681L291.284 -11.6699M115.597 175.589L296.52 -11.7613M120.833 175.498L301.756 -11.8527M126.069 175.407L306.992 -11.9441M131.306 175.315L312.228 -12.0355M136.542 175.224L317.464 -12.1269M141.778 175.133L322.7 -12.2183M147.014 175.041L327.936 -12.3097M152.25 174.95L333.173 -12.4011M157.486 174.858L338.409 -12.4925M162.722 174.767L343.645 -12.5839M167.958 174.676L348.881 -12.6753M173.194 174.584L354.117 -12.7667M178.431 174.493L359.353 -12.8581M183.667 174.401L364.589 -12.9495M188.903 174.31L369.825 -13.0409M194.139 174.219L375.062 -13.1323M199.375 174.127L380.298 -13.2237M204.611 174.036L385.534 -13.3151M209.847 173.944L390.77 -13.4065M215.083 173.853L396.006 -13.4979M220.319 173.762L401.242 -13.5893M225.556 173.67L406.478 -13.6807M230.792 173.579L411.714 -13.7721M236.028 173.487L416.95 -13.8635M241.264 173.396L422.187 -13.9549M246.5 173.305L427.423 -14.0463M251.736 173.213L432.659 -14.1377M256.972 173.122L437.895 -14.2291" stroke="url(#paint1_linear_889_19513)" stroke-opacity="0.2" stroke-width="0.436409"/>
</g>
<rect x="65.4499" y="32.15" width="198.7" height="19.7" rx="1.85" stroke="#1E293B" stroke-opacity="0.4" stroke-width="0.3" stroke-dasharray="1.37 1.37"/>
<rect x="57.2999" y="60" width="215" height="0.5" fill="#1E293B" fill-opacity="0.05"/>
<g clip-path="url(#clip3_889_19513)">
<path d="M-93.8474 215.745L87.0752 28.3945M-88.6113 215.654L92.3113 28.3031M-83.3752 215.563L97.5474 28.2117M-78.1391 215.471L102.784 28.1203M-72.9029 215.38L108.02 28.0289M-67.6668 215.288L113.256 27.9375M-62.4307 215.197L118.492 27.8461M-57.1946 215.106L123.728 27.7547M-51.9585 215.014L128.964 27.6634M-46.7224 214.923L134.2 27.572M-41.4863 214.831L139.436 27.4806M-36.2501 214.74L144.672 27.3892M-31.014 214.649L149.909 27.2978M-25.7779 214.557L155.145 27.2064M-20.5418 214.466L160.381 27.115M-15.3057 214.374L165.617 27.0236M-10.0696 214.283L170.853 26.9322M-4.83344 214.192L176.089 26.8408M0.402662 214.1L181.325 26.7494M5.63878 214.009L186.561 26.658M10.8749 213.917L191.797 26.5666M16.111 213.826L197.034 26.4752M21.3471 213.735L202.27 26.3838M26.5832 213.643L207.506 26.2924M31.8194 213.552L212.742 26.201M37.0555 213.46L217.978 26.1096M42.2916 213.369L223.214 26.0182M47.5277 213.278L228.45 25.9268M52.7638 213.186L233.686 25.8354M57.9999 213.095L238.923 25.744M63.236 213.003L244.159 25.6526M68.4722 212.912L249.395 25.5612M73.7083 212.821L254.631 25.4698M78.9444 212.729L259.867 25.3784M84.1805 212.638L265.103 25.287M89.4166 212.546L270.339 25.1956M94.6527 212.455L275.575 25.1042M99.8888 212.364L280.811 25.0128M105.125 212.272L286.048 24.9214M110.361 212.181L291.284 24.8301M115.597 212.089L296.52 24.7387M120.833 211.998L301.756 24.6473M126.069 211.907L306.992 24.5559M131.306 211.815L312.228 24.4645M136.542 211.724L317.464 24.3731M141.778 211.633L322.7 24.2817M147.014 211.541L327.936 24.1903M152.25 211.45L333.173 24.0989M157.486 211.358L338.409 24.0075M162.722 211.267L343.645 23.9161M167.958 211.176L348.881 23.8247M173.194 211.084L354.117 23.7333M178.431 210.993L359.353 23.6419M183.667 210.901L364.589 23.5505M188.903 210.81L369.825 23.4591M194.139 210.719L375.062 23.3677M199.375 210.627L380.298 23.2763M204.611 210.536L385.534 23.1849M209.847 210.444L390.77 23.0935M215.083 210.353L396.006 23.0021M220.319 210.262L401.242 22.9107M225.556 210.17L406.478 22.8193M230.792 210.079L411.714 22.7279M236.028 209.987L416.95 22.6365M241.264 209.896L422.187 22.5451M246.5 209.805L427.423 22.4537M251.736 209.713L432.659 22.3623M256.972 209.622L437.895 22.2709" stroke="url(#paint2_linear_889_19513)" stroke-opacity="0.2" stroke-width="0.436409"/>
</g>
<rect x="65.4499" y="68.65" width="198.7" height="50.7" rx="1.85" stroke="url(#paint3_linear_889_19513)" stroke-opacity="0.4" stroke-width="0.3" stroke-dasharray="1.37 1.37"/>
<rect opacity="0.5" x="57.2999" y="127.5" width="215" height="0.5" fill="#1E293B" fill-opacity="0.05"/>
<g opacity="0.4">
<g clip-path="url(#clip4_889_19513)">
<path d="M-93.8474 283.245L87.0752 95.8945M-88.6113 283.154L92.3113 95.8031M-83.3752 283.063L97.5474 95.7117M-78.1391 282.971L102.784 95.6203M-72.9029 282.88L108.02 95.5289M-67.6668 282.788L113.256 95.4375M-62.4307 282.697L118.492 95.3461M-57.1946 282.606L123.728 95.2547M-51.9585 282.514L128.964 95.1634M-46.7224 282.423L134.2 95.072M-41.4863 282.331L139.436 94.9806M-36.2501 282.24L144.672 94.8892M-31.014 282.149L149.909 94.7978M-25.7779 282.057L155.145 94.7064M-20.5418 281.966L160.381 94.615M-15.3057 281.874L165.617 94.5236M-10.0696 281.783L170.853 94.4322M-4.83344 281.692L176.089 94.3408M0.402662 281.6L181.325 94.2494M5.63878 281.509L186.561 94.158M10.8749 281.417L191.797 94.0666M16.111 281.326L197.034 93.9752M21.3471 281.235L202.27 93.8838M26.5832 281.143L207.506 93.7924M31.8194 281.052L212.742 93.701M37.0555 280.96L217.978 93.6096M42.2916 280.869L223.214 93.5182M47.5277 280.778L228.45 93.4268M52.7638 280.686L233.686 93.3354M57.9999 280.595L238.923 93.244M63.236 280.503L244.159 93.1526M68.4722 280.412L249.395 93.0612M73.7083 280.321L254.631 92.9698M78.9444 280.229L259.867 92.8784M84.1805 280.138L265.103 92.787M89.4166 280.046L270.339 92.6956M94.6527 279.955L275.575 92.6042M99.8888 279.864L280.811 92.5128M105.125 279.772L286.048 92.4214M110.361 279.681L291.284 92.3301M115.597 279.589L296.52 92.2387M120.833 279.498L301.756 92.1473M126.069 279.407L306.992 92.0559M131.306 279.315L312.228 91.9645M136.542 279.224L317.464 91.8731M141.778 279.133L322.7 91.7817M147.014 279.041L327.936 91.6903M152.25 278.95L333.173 91.5989M157.486 278.858L338.409 91.5075M162.722 278.767L343.645 91.4161M167.958 278.676L348.881 91.3247M173.194 278.584L354.117 91.2333M178.431 278.493L359.353 91.1419M183.667 278.401L364.589 91.0505M188.903 278.31L369.825 90.9591M194.139 278.219L375.062 90.8677M199.375 278.127L380.298 90.7763M204.611 278.036L385.534 90.6849M209.847 277.944L390.77 90.5935M215.083 277.853L396.006 90.5021M220.319 277.762L401.242 90.4107M225.556 277.67L406.478 90.3193M230.792 277.579L411.714 90.2279M236.028 277.487L416.95 90.1365M241.264 277.396L422.187 90.0451M246.5 277.305L427.423 89.9537M251.736 277.213L432.659 89.8623M256.972 277.122L437.895 89.7709" stroke="url(#paint4_linear_889_19513)" stroke-opacity="0.2" stroke-width="0.436409"/>
</g>
<rect x="65.4499" y="136.15" width="198.7" height="19.7" rx="1.85" stroke="url(#paint5_linear_889_19513)" stroke-opacity="0.4" stroke-width="0.3" stroke-dasharray="1.37 1.37"/>
</g>
</g>
<rect x="57.7999" y="24.5" width="214" height="139" rx="3.5" stroke="url(#paint6_linear_889_19513)" stroke-opacity="0.1"/>
</g>
<defs>
<linearGradient id="paint0_linear_889_19513" x1="164.5" y1="-1.02658e-07" x2="164.52" y2="117.577" gradientUnits="userSpaceOnUse">
<stop stop-color="#1E293B"/>
<stop offset="1" stop-color="#1E293B" stop-opacity="0"/>
</linearGradient>
<linearGradient id="paint1_linear_889_19513" x1="166.963" y1="23.2012" x2="166.991" y2="86.5041" gradientUnits="userSpaceOnUse">
<stop stop-color="#1E293B"/>
<stop offset="1" stop-color="#1E293B" stop-opacity="0"/>
</linearGradient>
<linearGradient id="paint2_linear_889_19513" x1="167.129" y1="90.8018" x2="166.925" y2="130.157" gradientUnits="userSpaceOnUse">
<stop stop-color="#1E293B"/>
<stop offset="1" stop-color="#1E293B" stop-opacity="0"/>
</linearGradient>
<linearGradient id="paint3_linear_889_19513" x1="164.8" y1="68.5" x2="164.8" y2="119.5" gradientUnits="userSpaceOnUse">
<stop stop-color="#1E293B"/>
<stop offset="1" stop-color="#1E293B" stop-opacity="0.16"/>
</linearGradient>
<linearGradient id="paint4_linear_889_19513" x1="166.963" y1="127.201" x2="166.991" y2="190.504" gradientUnits="userSpaceOnUse">
<stop stop-color="#1E293B"/>
<stop offset="1" stop-color="#1E293B" stop-opacity="0"/>
</linearGradient>
<linearGradient id="paint5_linear_889_19513" x1="164.8" y1="136" x2="164.8" y2="156" gradientUnits="userSpaceOnUse">
<stop stop-color="#1E293B"/>
<stop offset="1" stop-color="#1E293B" stop-opacity="0"/>
</linearGradient>
<linearGradient id="paint6_linear_889_19513" x1="164.8" y1="24" x2="164.8" y2="164" gradientUnits="userSpaceOnUse">
<stop stop-color="#1E293B"/>
<stop offset="1" stop-color="#1E293B" stop-opacity="0"/>
</linearGradient>
<clipPath id="clip0_889_19513">
<rect width="329" height="173" fill="white" transform="translate(0.5)"/>
</clipPath>
<clipPath id="clip1_889_19513">
<rect x="57.2999" y="24" width="215" height="140" rx="4" fill="white"/>
</clipPath>
<clipPath id="clip2_889_19513">
<rect x="65.2999" y="32" width="199" height="20" rx="2" fill="white"/>
</clipPath>
<clipPath id="clip3_889_19513">
<rect x="65.2999" y="68.5" width="199" height="51" rx="2" fill="white"/>
</clipPath>
<clipPath id="clip4_889_19513">
<rect x="65.2999" y="136" width="199" height="20" rx="2" fill="white"/>
</clipPath>
</defs>
</svg>
