<svg width="329" height="173" viewBox="0 0 329 173" fill="none" xmlns="http://www.w3.org/2000/svg">
<g clip-path="url(#clip0_993_2485)">
<rect x="0.5" y="0.5" width="328" height="172" rx="5.5" fill="url(#paint0_linear_993_2485)" fill-opacity="0.5" stroke="url(#paint1_linear_993_2485)"/>
<rect x="36" y="24" width="256" height="112" rx="3" fill="url(#paint2_linear_993_2485)" fill-opacity="0.26"/>
<g clip-path="url(#clip1_993_2485)">
<path fill-rule="evenodd" clip-rule="evenodd" d="M47.0499 33.5749C45.683 33.5749 44.5749 34.683 44.5749 36.0499C44.5749 37.4168 45.683 38.5249 47.0499 38.5249C47.7334 38.5249 48.3517 38.2482 48.8 37.8C49.2482 37.3517 49.5249 36.7334 49.5249 36.0499C49.5249 34.683 48.4168 33.5749 47.0499 33.5749ZM43.8999 36.0499C43.8999 34.3102 45.3102 32.8999 47.0499 32.8999C48.7896 32.8999 50.1999 34.3102 50.1999 36.0499C50.1999 36.798 49.9388 37.4856 49.5032 38.0259L51.001 39.5237C51.1328 39.6555 51.1328 39.8692 51.001 40.001C50.8692 40.1328 50.6555 40.1328 50.5237 40.001L49.0259 38.5032C48.4856 38.9388 47.798 39.1999 47.0499 39.1999C45.3102 39.1999 43.8999 37.7896 43.8999 36.0499Z" fill="#475569" fill-opacity="0.88"/>
</g>
<line x1="57.8506" y1="36.5369" x2="77.8506" y2="36.5369" stroke="#475569" stroke-opacity="0.3" stroke-width="6" stroke-linecap="round"/>
<path d="M292 47.5H36V48.5H292V47.5Z" fill="#475569" fill-opacity="0.2" mask="url(#path-3-inside-1_993_2485)"/>
<line x1="57" y1="59" x2="102" y2="59" stroke="#475569" stroke-opacity="0.3" stroke-width="6" stroke-linecap="round"/>
<rect x="279" y="56" width="7.00001" height="7" rx="2" fill="#475569" fill-opacity="0.3"/>
<rect x="271" y="56" width="7.00001" height="7" rx="2" fill="#475569" fill-opacity="0.3"/>
<path d="M49.3125 60.3438V59.3594C49.3125 59.0237 49.1792 58.7018 48.9418 58.4644C48.7045 58.2271 48.3825 58.0938 48.0469 58.0938H47.4844C47.3725 58.0938 47.2652 58.0493 47.1861 57.9702C47.1069 57.8911 47.0625 57.7838 47.0625 57.6719V57.1094C47.0625 56.7737 46.9292 56.4518 46.6918 56.2144C46.4545 55.9771 46.1325 55.8438 45.7969 55.8438H45.0938M46.5 59.2188V61.4688M47.625 60.3438H45.375M45.9375 55.8438H44.1094C43.8765 55.8438 43.6875 56.0328 43.6875 56.2656V62.7344C43.6875 62.9672 43.8765 63.1562 44.1094 63.1562H48.8906C49.1235 63.1562 49.3125 62.9672 49.3125 62.7344V59.2188C49.3125 58.3236 48.9569 57.4652 48.324 56.8323C47.691 56.1993 46.8326 55.8438 45.9375 55.8438Z" stroke="#475569" stroke-opacity="0.88" stroke-width="0.5625" stroke-linecap="round" stroke-linejoin="round"/>
<line x1="57" y1="72" x2="142" y2="72" stroke="#475569" stroke-opacity="0.3" stroke-width="6" stroke-linecap="round"/>
<rect x="279" y="69" width="7.00001" height="7" rx="2" fill="#475569" fill-opacity="0.3"/>
<rect x="271" y="69" width="7.00001" height="7" rx="2" fill="#475569" fill-opacity="0.3"/>
<path d="M46.5 72.2061V74.4561M47.625 73.3311H45.375M46.8975 70.6348L46.1025 69.8398C46.0503 69.7875 45.9883 69.746 45.92 69.7177C45.8517 69.6894 45.7785 69.6748 45.7046 69.6748H43.6875C43.4637 69.6748 43.2491 69.7637 43.0909 69.9219C42.9326 70.0802 42.8438 70.2948 42.8438 70.5186V75.0186C42.8438 75.2423 42.9326 75.4569 43.0909 75.6152C43.2491 75.7734 43.4637 75.8623 43.6875 75.8623H49.3125C49.5363 75.8623 49.7509 75.7734 49.9091 75.6152C50.0674 75.4569 50.1562 75.2423 50.1562 75.0186V71.6436C50.1562 71.4198 50.0674 71.2052 49.9091 71.0469C49.7509 70.8887 49.5363 70.7998 49.3125 70.7998H47.2954C47.1462 70.7997 47.0029 70.7403 46.8975 70.6348Z" stroke="#475569" stroke-opacity="0.88" stroke-width="0.5625" stroke-linecap="round" stroke-linejoin="round"/>
<line x1="57" y1="85" x2="121" y2="85" stroke="#475569" stroke-opacity="0.3" stroke-width="6" stroke-linecap="round"/>
<rect x="279" y="82" width="7.00001" height="7" rx="2" fill="#475569" fill-opacity="0.3"/>
<rect x="271" y="82" width="7.00001" height="7" rx="2" fill="#475569" fill-opacity="0.3"/>
<path d="M43.9688 84.0938H49.5938M43.4062 86.9062H49.0312M48.3563 81.8438L46.8938 89.1562M46.1062 81.8438L44.6438 89.1562" stroke="#475569" stroke-opacity="0.88" stroke-width="0.5625" stroke-linecap="round" stroke-linejoin="round"/>
<line x1="57" y1="98" x2="203" y2="98" stroke="#475569" stroke-opacity="0.3" stroke-width="6" stroke-linecap="round"/>
<rect x="279" y="95" width="7.00001" height="7" rx="2" fill="#475569" fill-opacity="0.3"/>
<rect x="271" y="95" width="7.00001" height="7" rx="2" fill="#475569" fill-opacity="0.3"/>
<g clip-path="url(#clip2_993_2485)">
<path d="M45.588 95.125H43.9688C43.745 95.125 43.5304 95.2139 43.3721 95.3721C43.2139 95.5304 43.125 95.745 43.125 95.9688V97.588C43.125 97.8119 43.2139 98.0268 43.3721 98.1846L46.965 101.777C47.2271 102.04 47.6325 102.104 47.9426 101.901C48.7232 101.39 49.39 100.723 49.9012 99.9426C50.1045 99.6325 50.0396 99.2271 49.7775 98.965L46.185 95.3725C46.1066 95.294 46.0136 95.2318 45.9111 95.1893C45.8087 95.1469 45.6989 95.125 45.588 95.125Z" stroke="#475569" stroke-opacity="0.88" stroke-width="0.5625" stroke-linecap="round" stroke-linejoin="round"/>
<path d="M44.25 96.25H44.253V96.253H44.25V96.25Z" stroke="#475569" stroke-opacity="0.88" stroke-width="0.5625" stroke-linecap="round" stroke-linejoin="round"/>
</g>
<g opacity="0.5">
<line x1="57" y1="111" x2="171" y2="111" stroke="#475569" stroke-opacity="0.3" stroke-width="6" stroke-linecap="round"/>
<rect x="279" y="108" width="7.00001" height="7" rx="2" fill="#475569" fill-opacity="0.3"/>
<rect x="271" y="108" width="7.00001" height="7" rx="2" fill="#475569" fill-opacity="0.3"/>
<path d="M45.375 110.094H44.8125C44.5887 110.094 44.3741 110.183 44.2159 110.341C44.0576 110.499 43.9688 110.714 43.9688 110.938V114.312C43.9688 114.536 44.0576 114.751 44.2159 114.909C44.3741 115.067 44.5887 115.156 44.8125 115.156H48.1875C48.4113 115.156 48.6259 115.067 48.7841 114.909C48.9424 114.751 49.0312 114.536 49.0312 114.312V110.938C49.0312 110.714 48.9424 110.499 48.7841 110.341C48.6259 110.183 48.4113 110.094 48.1875 110.094H47.625M45.375 111.5L46.5 112.625M46.5 112.625L47.625 111.5M46.5 112.625V107.844" stroke="#475569" stroke-opacity="0.88" stroke-width="0.5625" stroke-linecap="round" stroke-linejoin="round"/>
</g>
<g opacity="0.32">
<line x1="57" y1="124" x2="109" y2="124" stroke="#475569" stroke-opacity="0.3" stroke-width="6" stroke-linecap="round"/>
<rect x="279" y="121" width="7.00001" height="7" rx="2" fill="#475569" fill-opacity="0.3"/>
<rect x="271" y="121" width="7.00001" height="7" rx="2" fill="#475569" fill-opacity="0.3"/>
<path d="M44.25 125.062V121.406M44.25 125.062C44.3992 125.062 44.5423 125.122 44.6477 125.227C44.7532 125.333 44.8125 125.476 44.8125 125.625C44.8125 125.774 44.7532 125.917 44.6477 126.023C44.5423 126.128 44.3992 126.188 44.25 126.188M44.25 125.062C44.1008 125.062 43.9577 125.122 43.8523 125.227C43.7468 125.333 43.6875 125.476 43.6875 125.625C43.6875 125.774 43.7468 125.917 43.8523 126.023C43.9577 126.128 44.1008 126.188 44.25 126.188M44.25 126.188V127.594M48.75 125.062V121.406M48.75 125.062C48.8992 125.062 49.0423 125.122 49.1477 125.227C49.2532 125.333 49.3125 125.476 49.3125 125.625C49.3125 125.774 49.2532 125.917 49.1477 126.023C49.0423 126.128 48.8992 126.188 48.75 126.188M48.75 125.062C48.6008 125.062 48.4577 125.122 48.3523 125.227C48.2468 125.333 48.1875 125.476 48.1875 125.625C48.1875 125.774 48.2468 125.917 48.3523 126.023C48.4577 126.128 48.6008 126.188 48.75 126.188M48.75 126.188V127.594M46.5 122.812V121.406M46.5 122.812C46.6492 122.812 46.7923 122.872 46.8977 122.977C47.0032 123.083 47.0625 123.226 47.0625 123.375C47.0625 123.524 47.0032 123.667 46.8977 123.773C46.7923 123.878 46.6492 123.938 46.5 123.938M46.5 122.812C46.3508 122.812 46.2077 122.872 46.1023 122.977C45.9968 123.083 45.9375 123.226 45.9375 123.375C45.9375 123.524 45.9968 123.667 46.1023 123.773C46.2077 123.878 46.3508 123.938 46.5 123.938M46.5 123.938V127.594" stroke="#475569" stroke-opacity="0.88" stroke-width="0.5625" stroke-linecap="round" stroke-linejoin="round"/>
</g>
</g>
<defs>
<linearGradient id="paint0_linear_993_2485" x1="164.5" y1="0" x2="164.5" y2="78.7086" gradientUnits="userSpaceOnUse">
<stop stop-color="#475569"/>
<stop offset="1" stop-color="#475569" stop-opacity="0"/>
</linearGradient>
<linearGradient id="paint1_linear_993_2485" x1="164.5" y1="-1.02658e-07" x2="164.52" y2="117.577" gradientUnits="userSpaceOnUse">
<stop stop-color="#475569"/>
<stop offset="1" stop-color="#475569" stop-opacity="0"/>
</linearGradient>
<linearGradient id="paint2_linear_993_2485" x1="164" y1="24" x2="164" y2="136" gradientUnits="userSpaceOnUse">
<stop stop-color="#475569"/>
<stop offset="1" stop-color="#475569" stop-opacity="0"/>
</linearGradient>
<clipPath id="clip0_993_2485">
<rect width="329" height="173" fill="white"/>
</clipPath>
<clipPath id="clip1_993_2485">
<rect width="8.99998" height="8.99998" fill="white" transform="translate(43 32)"/>
</clipPath>
<clipPath id="clip2_993_2485">
<rect width="9" height="9" fill="white" transform="translate(42 94)"/>
</clipPath>
</defs>
</svg>
