<svg width="330" height="173" viewBox="0 0 330 173" fill="none" xmlns="http://www.w3.org/2000/svg">
<g clip-path="url(#clip0_889_19455)">
<rect x="1" y="0.5" width="327" height="172" rx="5.5" stroke="url(#paint0_linear_889_19455)" stroke-opacity="0.25"/>
<g clip-path="url(#clip1_889_19455)">
<path fill-rule="evenodd" clip-rule="evenodd" d="M47.55 33.575C46.1831 33.575 45.075 34.6831 45.075 36.05C45.075 37.4169 46.1831 38.525 47.55 38.525C48.2336 38.525 48.8518 38.2484 49.3001 37.8001C49.7484 37.3518 50.025 36.7336 50.025 36.05C50.025 34.6831 48.9169 33.575 47.55 33.575ZM44.4 36.05C44.4 34.3103 45.8103 32.9 47.55 32.9C49.2897 32.9 50.7 34.3103 50.7 36.05C50.7 36.7982 50.4389 37.4858 50.0033 38.026L51.5012 39.5239C51.633 39.6557 51.633 39.8694 51.5012 40.0012C51.3694 40.133 51.1557 40.133 51.0239 40.0012L49.526 38.5033C48.9858 38.9389 48.2982 39.2 47.55 39.2C45.8103 39.2 44.4 37.7897 44.4 36.05Z" fill="#1E293B" fill-opacity="0.32"/>
<line x1="58.3503" y1="36.5369" x2="78.3503" y2="36.5369" stroke="#1E293B" stroke-opacity="0.1" stroke-width="6" stroke-linecap="round"/>
</g>
<path d="M292.5 47.5H36.5V48.5H292.5V47.5Z" fill="#1E293B" fill-opacity="0.05" mask="url(#path-4-inside-1_889_19455)"/>
<line x1="57.5" y1="59" x2="102.5" y2="59" stroke="#1E293B" stroke-opacity="0.1" stroke-width="6" stroke-linecap="round"/>
<rect x="279.5" y="56" width="7.00001" height="7" rx="2" fill="#1E293B" fill-opacity="0.1"/>
<rect x="271.5" y="56" width="7.00001" height="7" rx="2" fill="#1E293B" fill-opacity="0.1"/>
<path d="M49.8125 60.3438V59.3594C49.8125 59.0237 49.6792 58.7018 49.4418 58.4644C49.2045 58.2271 48.8825 58.0938 48.5469 58.0938H47.9844C47.8725 58.0938 47.7652 58.0493 47.6861 57.9702C47.6069 57.8911 47.5625 57.7838 47.5625 57.6719V57.1094C47.5625 56.7737 47.4292 56.4518 47.1918 56.2144C46.9545 55.9771 46.6325 55.8438 46.2969 55.8438H45.5938M47 59.2188V61.4688M48.125 60.3438H45.875M46.4375 55.8438H44.6094C44.3765 55.8438 44.1875 56.0328 44.1875 56.2656V62.7344C44.1875 62.9672 44.3765 63.1562 44.6094 63.1562H49.3906C49.6235 63.1562 49.8125 62.9672 49.8125 62.7344V59.2188C49.8125 58.3236 49.4569 57.4652 48.824 56.8323C48.191 56.1993 47.3326 55.8438 46.4375 55.8438Z" stroke="#1E293B" stroke-opacity="0.32" stroke-width="0.5625" stroke-linecap="round" stroke-linejoin="round"/>
<line x1="57.5" y1="72" x2="142.5" y2="72" stroke="#1E293B" stroke-opacity="0.1" stroke-width="6" stroke-linecap="round"/>
<rect x="279.5" y="69" width="7.00001" height="7" rx="2" fill="#1E293B" fill-opacity="0.1"/>
<rect x="271.5" y="69" width="7.00001" height="7" rx="2" fill="#1E293B" fill-opacity="0.1"/>
<path d="M47 72.2059V74.4559M48.125 73.3309H45.875M47.3975 70.6347L46.6025 69.8397C46.5503 69.7874 46.4883 69.7459 46.42 69.7176C46.3517 69.6893 46.2785 69.6747 46.2046 69.6747H44.1875C43.9637 69.6747 43.7491 69.7636 43.5909 69.9218C43.4326 70.08 43.3438 70.2947 43.3438 70.5184V75.0184C43.3438 75.2422 43.4326 75.4568 43.5909 75.6151C43.7491 75.7733 43.9637 75.8622 44.1875 75.8622H49.8125C50.0363 75.8622 50.2509 75.7733 50.4091 75.6151C50.5674 75.4568 50.6562 75.2422 50.6562 75.0184V71.6434C50.6562 71.4197 50.5674 71.205 50.4091 71.0468C50.2509 70.8886 50.0363 70.7997 49.8125 70.7997H47.7954C47.6462 70.7996 47.5029 70.7402 47.3975 70.6347Z" stroke="#1E293B" stroke-opacity="0.32" stroke-width="0.5625" stroke-linecap="round" stroke-linejoin="round"/>
<line x1="57.5" y1="85" x2="121.5" y2="85" stroke="#1E293B" stroke-opacity="0.1" stroke-width="6" stroke-linecap="round"/>
<rect x="279.5" y="82" width="7.00001" height="7" rx="2" fill="#1E293B" fill-opacity="0.1"/>
<rect x="271.5" y="82" width="7.00001" height="7" rx="2" fill="#1E293B" fill-opacity="0.1"/>
<path d="M44.4688 84.0938H50.0938M43.9062 86.9062H49.5312M48.8563 81.8438L47.3938 89.1562M46.6062 81.8438L45.1438 89.1562" stroke="#1E293B" stroke-opacity="0.32" stroke-width="0.5625" stroke-linecap="round" stroke-linejoin="round"/>
<line x1="57.5" y1="98" x2="203.5" y2="98" stroke="#1E293B" stroke-opacity="0.1" stroke-width="6" stroke-linecap="round"/>
<rect x="279.5" y="95" width="7.00001" height="7" rx="2" fill="#1E293B" fill-opacity="0.1"/>
<rect x="271.5" y="95" width="7.00001" height="7" rx="2" fill="#1E293B" fill-opacity="0.1"/>
<path d="M46.088 95.125H44.4688C44.245 95.125 44.0304 95.2139 43.8721 95.3721C43.7139 95.5304 43.625 95.745 43.625 95.9688V97.588C43.625 97.8119 43.7139 98.0268 43.8721 98.1846L47.465 101.777C47.7271 102.04 48.1325 102.104 48.4426 101.901C49.2232 101.39 49.89 100.723 50.4012 99.9426C50.6045 99.6325 50.5396 99.2271 50.2775 98.965L46.685 95.3725C46.6066 95.294 46.5136 95.2318 46.4111 95.1893C46.3087 95.1469 46.1989 95.125 46.088 95.125Z" stroke="#1E293B" stroke-opacity="0.32" stroke-width="0.5625" stroke-linecap="round" stroke-linejoin="round"/>
<path d="M44.75 96.25H44.753V96.253H44.75V96.25Z" stroke="#1E293B" stroke-opacity="0.32" stroke-width="0.5625" stroke-linecap="round" stroke-linejoin="round"/>
<g opacity="0.5">
<line x1="57.5" y1="111" x2="171.5" y2="111" stroke="#1E293B" stroke-opacity="0.1" stroke-width="6" stroke-linecap="round"/>
<rect x="279.5" y="108" width="7.00001" height="7" rx="2" fill="#1E293B" fill-opacity="0.1"/>
<rect x="271.5" y="108" width="7.00001" height="7" rx="2" fill="#1E293B" fill-opacity="0.1"/>
<path d="M45.875 110.094H45.3125C45.0887 110.094 44.8741 110.183 44.7159 110.341C44.5576 110.499 44.4688 110.714 44.4688 110.938V114.312C44.4688 114.536 44.5576 114.751 44.7159 114.909C44.8741 115.067 45.0887 115.156 45.3125 115.156H48.6875C48.9113 115.156 49.1259 115.067 49.2841 114.909C49.4424 114.751 49.5312 114.536 49.5312 114.312V110.938C49.5312 110.714 49.4424 110.499 49.2841 110.341C49.1259 110.183 48.9113 110.094 48.6875 110.094H48.125M45.875 111.5L47 112.625M47 112.625L48.125 111.5M47 112.625V107.844" stroke="#1E293B" stroke-opacity="0.32" stroke-width="0.5625" stroke-linecap="round" stroke-linejoin="round"/>
</g>
<g opacity="0.32">
<line x1="57.5" y1="124" x2="109.5" y2="124" stroke="#1E293B" stroke-opacity="0.1" stroke-width="6" stroke-linecap="round"/>
<rect x="279.5" y="121" width="7.00001" height="7" rx="2" fill="#1E293B" fill-opacity="0.1"/>
<rect x="271.5" y="121" width="7.00001" height="7" rx="2" fill="#1E293B" fill-opacity="0.1"/>
<path d="M44.75 125.062V121.406M44.75 125.062C44.8992 125.062 45.0423 125.122 45.1477 125.227C45.2532 125.333 45.3125 125.476 45.3125 125.625C45.3125 125.774 45.2532 125.917 45.1477 126.023C45.0423 126.128 44.8992 126.188 44.75 126.188M44.75 125.062C44.6008 125.062 44.4577 125.122 44.3523 125.227C44.2468 125.333 44.1875 125.476 44.1875 125.625C44.1875 125.774 44.2468 125.917 44.3523 126.023C44.4577 126.128 44.6008 126.188 44.75 126.188M44.75 126.188V127.594M49.25 125.062V121.406M49.25 125.062C49.3992 125.062 49.5423 125.122 49.6477 125.227C49.7532 125.333 49.8125 125.476 49.8125 125.625C49.8125 125.774 49.7532 125.917 49.6477 126.023C49.5423 126.128 49.3992 126.188 49.25 126.188M49.25 125.062C49.1008 125.062 48.9577 125.122 48.8523 125.227C48.7468 125.333 48.6875 125.476 48.6875 125.625C48.6875 125.774 48.7468 125.917 48.8523 126.023C48.9577 126.128 49.1008 126.188 49.25 126.188M49.25 126.188V127.594M47 122.812V121.406M47 122.812C47.1492 122.812 47.2923 122.872 47.3977 122.977C47.5032 123.083 47.5625 123.226 47.5625 123.375C47.5625 123.524 47.5032 123.667 47.3977 123.773C47.2923 123.878 47.1492 123.938 47 123.938M47 122.812C46.8508 122.812 46.7077 122.872 46.6023 122.977C46.4968 123.083 46.4375 123.226 46.4375 123.375C46.4375 123.524 46.4968 123.667 46.6023 123.773C46.7077 123.878 46.8508 123.938 47 123.938M47 123.938V127.594" stroke="#1E293B" stroke-opacity="0.32" stroke-width="0.5625" stroke-linecap="round" stroke-linejoin="round"/>
</g>
<rect x="37" y="24.5" width="255" height="111" rx="2.5" stroke="url(#paint1_linear_889_19455)" stroke-opacity="0.1"/>
</g>
<defs>
<linearGradient id="paint0_linear_889_19455" x1="164.5" y1="-1.02658e-07" x2="164.52" y2="117.577" gradientUnits="userSpaceOnUse">
<stop stop-color="#1E293B"/>
<stop offset="1" stop-color="#1E293B" stop-opacity="0"/>
</linearGradient>
<linearGradient id="paint1_linear_889_19455" x1="164.5" y1="24" x2="164.5" y2="136" gradientUnits="userSpaceOnUse">
<stop stop-color="#1E293B"/>
<stop offset="1" stop-color="#1E293B" stop-opacity="0"/>
</linearGradient>
<clipPath id="clip0_889_19455">
<rect width="329" height="173" fill="white" transform="translate(0.5)"/>
</clipPath>
<clipPath id="clip1_889_19455">
<rect x="43.5" y="29" width="127" height="14" rx="2" fill="white"/>
</clipPath>
</defs>
</svg>
