<svg width="329" height="173" viewBox="0 0 329 173" fill="none" xmlns="http://www.w3.org/2000/svg">
<g clip-path="url(#clip0_889_19505)">
<rect x="0.5" y="0.5" width="327" height="172" rx="5.5" stroke="url(#paint0_linear_889_19505)" stroke-opacity="0.25"/>
<g clip-path="url(#clip1_889_19505)">
<path d="M-344.256 284.451L83.9376 -57.6226M-331.914 284.236L96.2797 -57.838M-319.572 284.021L108.622 -58.0534M-307.23 283.805L120.964 -58.2689M-294.888 283.59L133.306 -58.4843M-282.546 283.374L145.648 -58.6997M-270.203 283.159L157.991 -58.9152M-257.861 282.943L170.333 -59.1306M-245.519 282.728L182.675 -59.346M-233.177 282.513L195.017 -59.5615M-220.835 282.297L207.359 -59.7769M-208.493 282.082L219.701 -59.9923M-196.15 281.866L232.044 -60.2078M-183.808 281.651L244.386 -60.4232M-171.466 281.435L256.728 -60.6386M-159.124 281.22L269.07 -60.8541M-146.782 281.004L281.412 -61.0695M-134.44 280.789L293.754 -61.2849M-122.098 280.574L306.096 -61.5004M-109.755 280.358L318.439 -61.7158M-97.4132 280.143L330.781 -61.9312M-85.071 279.927L343.123 -62.1467M-72.7289 279.712L355.465 -62.3621M-60.3867 279.496L367.807 -62.5775M-48.0445 279.281L380.149 -62.793M-35.7024 279.066L392.492 -63.0084M-23.3602 278.85L404.834 -63.2238M-11.0181 278.635L417.176 -63.4393M1.32409 278.419L429.518 -63.6547M13.6663 278.204L441.86 -63.8701M26.0084 277.988L454.202 -64.0856M38.3506 277.773L466.545 -64.301M50.6927 277.558L478.887 -64.5164M63.0349 277.342L491.229 -64.7319M75.377 277.127L503.571 -64.9473M87.7192 276.911L515.913 -65.1627M100.061 276.696L528.255 -65.3782M112.404 276.48L540.598 -65.5936M124.746 276.265L552.94 -65.809M137.088 276.05L565.282 -66.0245M149.43 275.834L577.624 -66.2399M161.772 275.619L589.966 -66.4553M174.114 275.403L602.308 -66.6708M186.456 275.188L614.651 -66.8862M198.799 274.972L626.993 -67.1016M211.141 274.757L639.335 -67.3171M223.483 274.541L651.677 -67.5325M235.825 274.326L664.019 -67.7479M248.167 274.111L676.361 -67.9634M260.509 273.895L688.704 -68.1788M272.852 273.68L701.046 -68.3942M285.194 273.464L713.388 -68.6097M297.536 273.249L725.73 -68.8251M309.878 273.033L738.072 -69.0405M322.22 272.818L750.414 -69.256M334.562 272.603L762.756 -69.4714M346.905 272.387L775.099 -69.6868M359.247 272.172L787.441 -69.9023M371.589 271.956L799.783 -70.1177M383.931 271.741L812.125 -70.3331M396.273 271.525L824.467 -70.5486M408.615 271.31L836.809 -70.764M420.958 271.095L849.152 -70.9794M433.3 270.879L861.494 -71.1949M445.642 270.664L873.836 -71.4103M457.984 270.448L886.178 -71.6257M470.326 270.233L898.52 -71.8412M482.668 270.017L910.862 -72.0566" stroke="url(#paint1_linear_889_19505)" stroke-opacity="0.2" stroke-width="0.721516"/>
</g>
<rect x="32.4333" y="24.5" width="263" height="124" rx="3.5" stroke="url(#paint2_linear_889_19505)" stroke-opacity="0.25" stroke-dasharray="2.26 2.26"/>
</g>
<defs>
<linearGradient id="paint0_linear_889_19505" x1="164" y1="-1.02658e-07" x2="164.02" y2="117.577" gradientUnits="userSpaceOnUse">
<stop stop-color="#1E293B"/>
<stop offset="1" stop-color="#1E293B" stop-opacity="0"/>
</linearGradient>
<linearGradient id="paint1_linear_889_19505" x1="272.033" y1="55" x2="272.033" y2="126.5" gradientUnits="userSpaceOnUse">
<stop stop-color="#1E293B"/>
<stop offset="1" stop-color="#1E293B" stop-opacity="0"/>
</linearGradient>
<linearGradient id="paint2_linear_889_19505" x1="163.933" y1="24" x2="163.933" y2="149" gradientUnits="userSpaceOnUse">
<stop stop-color="#1E293B"/>
<stop offset="1" stop-color="#1E293B" stop-opacity="0"/>
</linearGradient>
<clipPath id="clip0_889_19505">
<rect width="329" height="173" fill="white"/>
</clipPath>
<clipPath id="clip1_889_19505">
<rect x="31.9333" y="24" width="264" height="125" rx="4" fill="white"/>
</clipPath>
</defs>
</svg>
