<svg width="320" height="180" viewBox="0 0 320 180" fill="none" xmlns="http://www.w3.org/2000/svg">
<g clip-path="url(#clip0_476_8099)">
<g clip-path="url(#clip1_476_8099)">
<rect width="320" height="180" rx="6" fill="url(#paint0_linear_476_8099)" fill-opacity="0.4"/>
<rect x="0.5" y="0.5" width="319" height="179" rx="5.5" stroke="url(#paint1_linear_476_8099)" stroke-opacity="0.6"/>
<path d="M33.2566 25H39.3903C39.5851 25 39.7765 24.9492 39.9452 24.8527C40.1139 24.7561 40.254 24.6172 40.3514 24.45C40.4487 24.2827 40.4999 24.093 40.4999 23.8999C40.4998 23.7069 40.4484 23.5172 40.3509 23.35L36.2317 16.2786C36.1343 16.1114 35.9942 15.9726 35.8256 15.876C35.6569 15.7795 35.4655 15.7287 35.2707 15.7287C35.076 15.7287 34.8846 15.7795 34.7159 15.876C34.5473 15.9726 34.4072 16.1114 34.3098 16.2786L33.2566 18.0879L31.1973 14.5499C31.0998 14.3827 30.9597 14.2439 30.791 14.1473C30.6222 14.0508 30.4309 14 30.236 14C30.0412 14 29.8499 14.0508 29.6811 14.1473C29.5124 14.2439 29.3723 14.3827 29.2748 14.5499L24.149 23.35C24.0515 23.5172 24.0001 23.7069 24 23.8999C23.9999 24.093 24.0511 24.2827 24.1485 24.45C24.2459 24.6172 24.386 24.7561 24.5547 24.8527C24.7234 24.9492 24.9148 25 25.1096 25H28.9598C30.4853 25 31.6103 24.3359 32.3844 23.0402L34.2638 19.8143L35.2704 18.0879L38.2916 23.2736H34.2638L33.2566 25ZM28.897 23.2718L26.2101 23.2712L30.2378 16.3574L32.2475 19.8143L30.902 22.1249C30.3879 22.9655 29.8039 23.2718 28.897 23.2718Z" fill="#475569"/>
<line x1="117.5" y1="19.5" x2="136.5" y2="19.5" stroke="#475569" stroke-width="3" stroke-linecap="round"/>
<line x1="150.5" y1="19.5" x2="169.5" y2="19.5" stroke="#475569" stroke-width="3" stroke-linecap="round"/>
<line x1="183.5" y1="19.5" x2="202.5" y2="19.5" stroke="#475569" stroke-width="3" stroke-linecap="round"/>
<rect x="265" y="15" width="31" height="7" rx="2" fill="#475569"/>
<path fill-rule="evenodd" clip-rule="evenodd" d="M25.5 43C24.6716 43 24 43.6716 24 44.5C24 45.3284 24.6716 46 25.5 46H31.5C32.3284 46 33 45.3284 33 44.5C33 43.6716 32.3284 43 31.5 43H25.5ZM25.5 98C24.6716 98 24 98.6716 24 99.5C24 100.328 24.6716 101 25.5 101H31.5C32.3284 101 33 100.328 33 99.5C33 98.6716 32.3284 98 31.5 98H25.5ZM24 72.5C24 71.6716 24.6716 71 25.5 71H27.5C28.3284 71 29 71.6716 29 72.5C29 73.3284 28.3284 74 27.5 74H25.5C24.6716 74 24 73.3284 24 72.5ZM25.5 126C24.6716 126 24 126.672 24 127.5C24 128.328 24.6716 129 25.5 129H27.5C28.3284 129 29 128.328 29 127.5C29 126.672 28.3284 126 27.5 126H25.5ZM24 53.5C24 52.6716 24.6716 52 25.5 52H52.5C53.3284 52 54 52.6716 54 53.5C54 54.3284 53.3284 55 52.5 55H25.5C24.6716 55 24 54.3284 24 53.5ZM25.5 108C24.6716 108 24 108.672 24 109.5C24 110.328 24.6716 111 25.5 111H52.5C53.3284 111 54 110.328 54 109.5C54 108.672 53.3284 108 52.5 108H25.5ZM24 81.5C24 80.6716 24.6716 80 25.5 80H39.5C40.3284 80 41 80.6716 41 81.5C41 82.3284 40.3284 83 39.5 83H25.5C24.6716 83 24 82.3284 24 81.5ZM25.5 135C24.6716 135 24 135.672 24 136.5C24 137.328 24.6716 138 25.5 138H39.5C40.3284 138 41 137.328 41 136.5C41 135.672 40.3284 135 39.5 135H25.5ZM24 62.5C24 61.6716 24.6716 61 25.5 61H52.5C53.3284 61 54 61.6716 54 62.5C54 63.3284 53.3284 64 52.5 64H25.5C24.6716 64 24 63.3284 24 62.5ZM25.5 117C24.6716 117 24 117.672 24 118.5C24 119.328 24.6716 120 25.5 120H52.5C53.3284 120 54 119.328 54 118.5C54 117.672 53.3284 117 52.5 117H25.5ZM24 90.5C24 89.6716 24.6716 89 25.5 89H39.5C40.3284 89 41 89.6716 41 90.5C41 91.3284 40.3284 92 39.5 92H25.5C24.6716 92 24 91.3284 24 90.5ZM25.5 144C24.6716 144 24 144.672 24 145.5C24 146.328 24.6716 147 25.5 147H39.5C40.3284 147 41 146.328 41 145.5C41 144.672 40.3284 144 39.5 144H25.5Z" fill="url(#paint2_linear_476_8099)"/>
<path fill-rule="evenodd" clip-rule="evenodd" d="M262 44.5C262 43.6716 262.672 43 263.5 43H266.5C267.328 43 268 43.6716 268 44.5C268 45.3284 267.328 46 266.5 46H263.5C262.672 46 262 45.3284 262 44.5ZM262 72.5C262 71.6716 262.672 71 263.5 71H270.5C271.328 71 272 71.6716 272 72.5C272 73.3284 271.328 74 270.5 74H263.5C262.672 74 262 73.3284 262 72.5ZM263.5 98C262.672 98 262 98.6716 262 99.5C262 100.328 262.672 101 263.5 101H266.5C267.328 101 268 100.328 268 99.5C268 98.6716 267.328 98 266.5 98H263.5ZM262 81.5C262 80.6716 262.672 80 263.5 80H294.5C295.328 80 296 80.6716 296 81.5C296 82.3284 295.328 83 294.5 83H263.5C262.672 83 262 82.3284 262 81.5ZM263.5 52C262.672 52 262 52.6716 262 53.5C262 54.3284 262.672 55 263.5 55H279.5C280.328 55 281 54.3284 281 53.5C281 52.6716 280.328 52 279.5 52H263.5ZM262 109.5C262 108.672 262.672 108 263.5 108H279.5C280.328 108 281 108.672 281 109.5C281 110.328 280.328 111 279.5 111H263.5C262.672 111 262 110.328 262 109.5ZM263.5 89C262.672 89 262 89.6716 262 90.5C262 91.3284 262.672 92 263.5 92H294.5C295.328 92 296 91.3284 296 90.5C296 89.6716 295.328 89 294.5 89H263.5ZM262 62.5C262 61.6716 262.672 61 263.5 61H279.5C280.328 61 281 61.6716 281 62.5C281 63.3284 280.328 64 279.5 64H263.5C262.672 64 262 63.3284 262 62.5ZM263.5 117C262.672 117 262 117.672 262 118.5C262 119.328 262.672 120 263.5 120H279.5C280.328 120 281 119.328 281 118.5C281 117.672 280.328 117 279.5 117H263.5Z" fill="url(#paint3_linear_476_8099)"/>
<path fill-rule="evenodd" clip-rule="evenodd" d="M96 44.5C96 43.6716 96.6716 43 97.5 43H113.5C114.328 43 115 43.6716 115 44.5C115 45.3284 114.328 46 113.5 46H97.5C96.6716 46 96 45.3284 96 44.5ZM96 134.5C96 133.672 96.6716 133 97.5 133H124.5C125.328 133 126 133.672 126 134.5C126 135.328 125.328 136 124.5 136H97.5C96.6716 136 96 135.328 96 134.5ZM97.5 55C96.6716 55 96 55.6716 96 56.5C96 57.3284 96.6716 58 97.5 58H224.5C225.328 58 226 57.3284 226 56.5C226 55.6716 225.328 55 224.5 55H97.5ZM96 147.5C96 146.672 96.6716 146 97.5 146H191.5C192.328 146 193 146.672 193 147.5C193 148.328 192.328 149 191.5 149H97.5C96.6716 149 96 148.328 96 147.5ZM97.5 67C96.6716 67 96 67.6716 96 68.5C96 69.3284 96.6716 70 97.5 70H224.5C225.328 70 226 69.3284 226 68.5C226 67.6716 225.328 67 224.5 67H97.5ZM96 158.5C96 157.672 96.6716 157 97.5 157H191.5C192.328 157 193 157.672 193 158.5C193 159.328 192.328 160 191.5 160H97.5C96.6716 160 96 159.328 96 158.5ZM99 77C97.3431 77 96 78.3431 96 80V108C96 109.657 97.3431 111 99 111H223C224.657 111 226 109.657 226 108V80C226 78.3431 224.657 77 223 77H99Z" fill="url(#paint4_linear_476_8099)"/>
</g>
</g>
<defs>
<linearGradient id="paint0_linear_476_8099" x1="160" y1="0" x2="160" y2="93.6351" gradientUnits="userSpaceOnUse">
<stop stop-color="#475569"/>
<stop offset="1" stop-color="#475569" stop-opacity="0"/>
</linearGradient>
<linearGradient id="paint1_linear_476_8099" x1="160" y1="-1.06812e-07" x2="160.022" y2="122.335" gradientUnits="userSpaceOnUse">
<stop stop-color="#475569"/>
<stop offset="1" stop-color="#475569" stop-opacity="0"/>
</linearGradient>
<linearGradient id="paint2_linear_476_8099" x1="39.9551" y1="43.3382" x2="40.1182" y2="161.319" gradientUnits="userSpaceOnUse">
<stop stop-color="#475569"/>
<stop offset="1" stop-color="#475569" stop-opacity="0"/>
</linearGradient>
<linearGradient id="paint3_linear_476_8099" x1="279.437" y1="43.4901" x2="279.515" y2="129.869" gradientUnits="userSpaceOnUse">
<stop stop-color="#475569"/>
<stop offset="1" stop-color="#475569" stop-opacity="0"/>
</linearGradient>
<linearGradient id="paint4_linear_476_8099" x1="161.834" y1="36.6396" x2="161.777" y2="175.779" gradientUnits="userSpaceOnUse">
<stop stop-color="#475569"/>
<stop offset="1" stop-color="#475569" stop-opacity="0"/>
</linearGradient>
<clipPath id="clip0_476_8099">
<rect width="320" height="180" fill="white"/>
</clipPath>
<clipPath id="clip1_476_8099">
<rect width="320" height="180" fill="white"/>
</clipPath>
</defs>
</svg>
